<svg xmlns="http://www.w3.org/2000/svg" viewBox="0 0 100 100"><defs><style>.a{fill:#02303a;fill-rule:evenodd;}</style></defs><title>Gradle</title><path class="a" d="M100,35.8h-.1a21.1,21.1,0,0,0-.8-4.5,18.7,18.7,0,0,0-5.8-7.6h0c-2.2-2-5.6-3.5-6.7-2.2a19.6,19.6,0,0,0-2.2,2.1h-.1c-.9,1.2-.4,1.6.1,2S89.1,28,90.5,32c.7,1.7,2.1,5.6-.4,8a8,8,0,0,1-1.9,1.3l-1.3.2c-2.7.2-6.9-2-15.5-9.8a7.6,7.6,0,0,0-.9-.9c-8.4-8-18.7-9.2-27-8.5A58.3,58.3,0,0,0,30.8,25c-6.4,2.1-9.3,4.2-6.8,9.1a89.6,89.6,0,0,0,5.6,10.1c1.3,2.2,3,3.1,4.8,3.1,5.1.1,11.1-6.2,11.8-7-4.5,6.7-8.6,9.1-12,9.1a8,8,0,0,1-6.6-3.9,78.8,78.8,0,0,1-4.5-8.8h0C2.8,44.1,6.7,74.8,7.3,78.6V79H18.1c2.7-12.7,12.5-12.2,14.2,0h8.2c7.2-24.8,22.8,0,22.8,0h9.2c0-13.2-1.4-18.2,5.4-19.1,11.5-1.6,16.9-7,20.4-15.1h0l.3-.8.3-.7a1.4,1.4,0,0,1,.2-.6A21.2,21.2,0,0,0,100,35.8ZM64.5,46.9c-5.6-1.9-3.6-7.7-3.6-7.7l3.9,1.3a3,3,0,0,0-1.2,2.7,2.9,2.9,0,0,0,3.3,2.5,2.9,2.9,0,0,0,2.6-3.2v-.4l3,1C72.2,44.9,68.8,48.3,64.5,46.9Z"/></svg>