<svg xmlns="http://www.w3.org/2000/svg" viewBox="0 0 100 100"><defs><style>.a{fill:#364548;}.a,.b,.c,.d,.e,.f,.g,.h,.i{fill-rule:evenodd;}.b{fill:#22a0c8;}.c{fill:#37b1d9;}.d{fill:#1b81a5;}.e{fill:#1d91b4;}.f{fill:#23a3c2;}.g{fill:#34bbde;}.h{fill:#d3ecec;}.i{fill:#bdd9d7;}</style></defs><title>Docker</title><path class="a" d="M57.8,39.5h9v9.2h4.5a22.4,22.4,0,0,0,6.3-1,26.3,26.3,0,0,0,3-1.4,11.1,11.1,0,0,1-2.1-5.8c-.3-2.8.3-6.4,2.2-8.6l.9-1.1,1.1.9c2.9,2.3,5.2,5.4,5.7,9a13.9,13.9,0,0,1,10.4,1l1.2.7-.6,1.3c-2.6,4.9-7.9,6.5-13.1,6.2C78.6,69.2,61.7,78.4,41.2,78.4c-10.6,0-20.3-4-25.9-13.4h0l-.9-1.7a26.6,26.6,0,0,1-2-13.1V48.7h7.7V39.5h8.9V30.6h18v-9H57.8V39.5"/><path class="b" d="M86.9,42.9c.6-4.6-2.9-8.3-5.1-10.1-2.5,2.9-2.9,10.5,1,13.7-2.1,1.9-6.8,3.7-11.5,3.7H13.9a24.2,24.2,0,0,0,2.3,13.3l.7,1.2c.4.7.9,1.4,1.4,2.1,2.3.1,4.5.2,6.5.1h0a30.3,30.3,0,0,0,9.5-1.4.7.7,0,0,1,.9.5.9.9,0,0,1-.4.9l-1,.3h0a29.6,29.6,0,0,1-6.6,1H19.5c4.8,5.4,12.3,8.6,21.7,8.6,19.8,0,36.7-8.8,44.1-28.6,5.3.6,10.4-.8,12.7-5.3-3.7-2.1-8.4-1.4-11.1-.1"/><path class="c" d="M86.9,42.9c.6-4.6-2.9-8.3-5.1-10.1-2.5,2.9-2.9,10.5,1,13.7-2.1,1.9-6.8,3.7-11.5,3.7h-54c-.3,7.5,2.5,13.3,7.5,16.7h0a30.3,30.3,0,0,0,9.5-1.4.7.7,0,0,1,.9.5.9.9,0,0,1-.4.9l-1,.3h0A38.7,38.7,0,0,1,27,68.3h-.1c6.8,3.5,16.6,3.5,27.8-.8A78.5,78.5,0,0,0,87.2,42.8h-.3"/><path class="d" d="M14,56.2a22.1,22.1,0,0,0,2.2,7.3l.7,1.2c.4.7.9,1.4,1.4,2.1,2.3.1,4.5.2,6.5.1a30.3,30.3,0,0,0,9.5-1.4.7.7,0,0,1,.9.5.9.9,0,0,1-.4.9l-1,.3h0A37.1,37.1,0,0,1,27,68.3H19.5c4.8,5.4,12.3,8.6,21.7,8.6,17,0,31.8-6.5,40.3-20.7H14"/><path class="e" d="M17.8,56.2a16.7,16.7,0,0,0,7,10.7,30.3,30.3,0,0,0,9.5-1.4.7.7,0,0,1,.9.5.9.9,0,0,1-.4.9l-1,.3h0A38.7,38.7,0,0,1,27,68.3c6.7,3.4,16.5,3.4,27.7-.9A71.5,71.5,0,0,0,73.9,56.2H17.8"/><path class="f" d="M21.7,41h7.7v7.8H21.7Zm.6.7h.6v6.5h-.6Zm1.2,0h.6v6.5h-.6V41.7Zm1.1,0h.7v6.5h-.7Zm1.2,0h.7v6.5h-.7Zm1.2,0h.6v6.5H27V41.7Zm1.2,0h.6v6.5h-.6Zm2.4-9.6h7.8v7.7H30.6V32.1Zm.7.6h.6v6.5h-.6Zm1.1,0h.7v6.5h-.7V32.7Zm1.2,0h.6v6.5h-.6Zm1.2,0h.6v6.5h-.6Zm1.2,0h.6v6.5H36Zm1.1,0h.7v6.5h-.7Z"/><path class="g" d="M30.6,41h7.8v7.8H30.6V41Zm.7.7h.6v6.5h-.6Zm1.1,0h.7v6.5h-.7V41.7Zm1.2,0h.6v6.5h-.6Zm1.2,0h.6v6.5h-.6Zm1.2,0h.6v6.5H36Zm1.1,0h.7v6.5h-.7Z"/><path class="f" d="M39.6,41h7.8v7.8H39.6Zm.6.7h.7v6.5h-.7Zm1.2,0H42v6.5h-.6Zm1.2,0h.6v6.5h-.6Zm1.2,0h.6v6.5h-.6Zm1.1,0h.7v6.5h-.7Zm1.2,0h.6v6.5h-.6Z"/><path class="g" d="M39.6,32.1h7.8v7.7H39.6Zm.6.6h.7v6.5h-.7Zm1.2,0H42v6.5h-.6Zm1.2,0h.6v6.5h-.6Zm1.2,0h.6v6.5h-.6Zm1.1,0h.7v6.5h-.7Zm1.2,0h.6v6.5h-.6ZM48.6,41h7.7v7.8H48.6Zm.6.7h.6v6.5h-.6Zm1.2,0H51v6.5h-.6Zm1.1,0h.7v6.5h-.7Zm1.2,0h.7v6.5h-.7Zm1.2,0h.6v6.5h-.6Zm1.2,0h.6v6.5h-.6Z"/><path class="f" d="M48.6,32.1h7.7v7.7H48.6Zm.6.6h.6v6.5h-.6Zm1.2,0H51v6.5h-.6Zm1.1,0h.7v6.5h-.7Zm1.2,0h.7v6.5h-.7Zm1.2,0h.6v6.5h-.6Zm1.2,0h.6v6.5h-.6Z"/><path class="g" d="M48.6,23.1h7.7v7.8H48.6Zm.6.7h.6v6.4h-.6V23.8Zm1.2,0H51v6.4h-.6V23.8Zm1.1,0h.7v6.4h-.7V23.8Zm1.2,0h.7v6.4h-.7V23.8Zm1.2,0h.6v6.4h-.6V23.8Zm1.2,0h.6v6.4h-.6V23.8Z"/><path class="f" d="M57.5,41h7.8v7.8H57.5Zm.7.7h.6v6.5h-.6V41.7Zm1.1,0H60v6.5h-.7V41.7Zm1.2,0h.6v6.5h-.6Zm1.2,0h.6v6.5h-.6Zm1.2,0h.6v6.5h-.6Zm1.1,0h.6v6.5H64Z"/><path class="h" d="M37.9,61.4a2.2,2.2,0,0,1,.1,4.3h-.1a2.1,2.1,0,0,1-2.1-2.2,2.2,2.2,0,0,1,2.1-2.1"/><path class="a" d="M37.9,62h.6a.8.8,0,0,0-.3.9.9.9,0,0,0,.6.3.5.5,0,0,0,.5-.3,1.5,1.5,0,0,1-.8,2,1.6,1.6,0,0,1-2-.9,1.6,1.6,0,0,1,.8-2h.6M0,57H99.7c-2.2-.6-6.9-1.3-6.1-4.2-3.9,4.6-13.4,3.2-15.9,1-2.6,3.9-18.2,2.4-19.3-.6-3.3,3.9-13.7,3.9-17.1,0-1.1,3-16.7,4.5-19.3.6-2.4,2.2-12,3.6-15.9-1C6.9,55.7,2.2,56.4,0,57"/><path class="i" d="M43.6,76.8c-5.3-2.5-8.2-5.9-9.8-9.6a34.6,34.6,0,0,1-7.1,1H19.2c4.9,4.9,10.9,8.6,22,8.7h2.4"/><path class="h" d="M35.7,70.6a18.6,18.6,0,0,1-1.9-3.4,34.6,34.6,0,0,1-7.1,1c1.9,1.1,4.6,2,9,2.4"/></svg>