<svg xmlns="http://www.w3.org/2000/svg" viewBox="0 0 100 100"><defs><style>.a{fill:#00acd2;}.b{fill:#c8e9eb;}.c{fill:#662d91;}</style></defs><title>Appium</title><path class="a" d="M73.3,17.5C63.5,9.2,42,5,25.9,17,10.8,27.2,10.1,45.7,10.1,45.7c2.6,10.1,12.8,19.8,32.4,15.1-2.3-13.6,2.3-48.1,30.8-43.3Z"/><path class="b" d="M63.1,50.5c-10.6,8.8-43,22.3-53-4.8C7.7,58.3,14.3,79.3,32.8,87.2c16.4,8,33.4-1.3,33.4-1.3,7.5-7.3,10.9-20.8-3.1-35.4"/><path class="c" d="M43.9,38.1c13,4.8,40.7,25.6,22.3,47.8,12.1-4.2,26.3-20.3,23.9-40.3C88.9,27.4,73.3,17.5,73.3,17.5c-10.1-2.8-23.6,1.2-29.4,20.6"/></svg>