<svg width="905.71713" height="325.05027" xmlns="http://www.w3.org/2000/svg">
 <metadata id="metadata178">image/svg+xml</metadata>
 <defs>
  <linearGradient y2="0" x2="1" y1="0" x1="0" id="svg_7">
   <stop offset="0" stop-color="#7f00ff"/>
   <stop offset="1" stop-color="#80ff00"/>
  </linearGradient>
  <linearGradient y2="0" x2="1" y1="0" x1="0" id="svg_8">
   <stop offset="0" stop-color="#3f007f"/>
   <stop offset="1" stop-color="#c0ff80"/>
  </linearGradient>
 </defs>
 <g>
  <title>background</title>
  <rect x="-1" y="-1" width="907.71713" height="327.05027" id="canvas_background" fill="none"/>
 </g>
 <g>
  <title>Layer 1</title>
  <g id="g168">
   <ellipse id="ellipse2" fill="#cacfd6" ry="8.57" rx="87.230003" cy="316.480271" cx="103.63913"/>
   <ellipse id="ellipse4" fill="#cacfd6" ry="8.57" rx="38.5" cy="298.438891" cx="261.92084"/>
   <path id="path8" fill="#e3e9ec" d="m905.71718,264.77651l-198,-4.27l-20.59,-61.16a142.6,142.6 0 0 0 17.77,-8c11.26,-6.27 12.58,-22.69 7.82,-33.31c-3.43,-1.31 -12.31,-1.71 -12.31,-1.71a48.88,48.88 0 0 1 0.83,14.71c-0.65,5 -12.33,11 -18.94,14l-24,-71.34c3.63,-2.07 39.84,-43.64 39.84,-43.64l16.21,0l69.46,78.37l22.9,-11.8l99.01,128.15z"/>
   <path id="path10" fill="#cacfd3" d="m712.69718,158.03651c0,0 10.72,28 -11.92,36.3c-22.64,8.3 -94.37,32.4 -82.59,43.23c26.69,24.53 127.29,27.22 127.29,27.22c0,0 -6.89,-42.43 -12.28,-61.07l-20.5,-45.68z"/>
   <path id="path12" fill="#e3e9ec" d="m75.59493,229.74441l17.51368,-35.23713l1.57729,17.46944l12.83834,-29.50205l2.9975,11.2827l6.01384,-19.79586l6.76166,27.49093l10.55722,-41.53465l7.9619,34.37645l11.09137,-20.35829c0,0 -11.93972,5.59874 -11.93972,4.11597c0,-1.48277 16.11233,-28.81179 16.11233,-28.81179c0,0 -14.83666,7.1156 -14.84295,5.64135c-0.006,-1.47425 12.56813,-16.44684 16.86013,-25.86329c4.29202,-9.41645 11.96486,-42.09708 11.96486,-42.09708c0,0 12.31676,40.21379 18.88989,44.55132c2.12401,-6.44239 8.87937,-24.76399 8.87937,-24.76399l-13.37876,7.58429c0,0 20.15926,-54.58134 22.62262,-66.92925c2.46335,-12.34791 1.88522,-8.10411 6.28406,2.66729c3.06662,9.14375 6.71138,39.05484 17.88444,56.05559c10.56979,12.78251 -7.59115,3.68136 -7.59115,3.68136l16.45167,40.47797l14.45334,-35.97852l8.57775,27.94258l12.78806,-36.14896l-14.45334,13.02112c0,0 12.88232,-24.32938 15.62846,-43.57985c2.74613,-19.25047 6.13953,-49.84329 6.13953,-49.84329l18.16093,44.55985c0,0 17.33144,-61.83329 17.98499,-70.21862c2.05488,29.52761 29.53508,100.05301 29.53508,100.05301c0,0 10.6829,-29.22083 11.66322,-40.05188c3.31798,10.72879 46.57117,189.42836 46.57117,189.42836c0,0 -121.99248,10.19192 -169.56281,10.40496c-47.57034,0.21304 -138.75835,1.07373 -147.16643,-5.19822c-8.40806,-6.27195 -15.82954,-24.89182 -15.82954,-24.89182z" stroke-width="0.731784"/>
   <path id="path16" fill="#f66a0a" d="m285.11082,269.4689c0,0 7.46,-2.12 8.62,1.61c1.16,3.73 -8.62,18.64 -8.62,18.64c0,0 11.19,-0.94 11.66,1.39c-8.17,1.17 -17.81,1.13 -18.41,1.58c-0.6,0.45 6.75,-23.22 6.75,-23.22z"/>
   <path id="path18" fill="#ff9c57" d="m308.57082,255.7689c-0.83,-1.55 -13,0 -13,0l0,-7.42c0,0 9.27,-2.7 9.85,-4.84c1.46,-5.33 -9.58,-1.35 -11.4,-1a44.57,44.57 0 0 0 -35.19,40.73a19.71,19.71 0 0 0 0.6,7c-2.42,1.94 -6.35,4.35 -9.17,2.41c-4.36,-3 9,-25.46 8.42,-36c-0.48,-8.92 -7.77,-29.57 -26.27,-29.71c-14.84,-0.1 -23.28,6 -29,19c-5.72,13 -9.33,19.69 -15.39,19.1c-6.06,-0.59 -8.77,0.5 -13.63,-8.88c0.47,6.34 5.34,19.34 18.35,19c13.01,-0.34 18.74,-6.7 24.48,-12.16c5.74,-5.46 15.71,-7.6 16.18,-0.34c0.47,7.26 -5.69,25 -4.76,30.81c0.93,5.81 3.5,9.13 14.09,8.81c9,-0.28 15.25,-6.52 17.86,-9.34a8,8 0 0 0 4.72,3.63a3.31,3.31 0 0 1 0.92,0.3c0.7,0.42 -1.48,3.56 -1.78,4.32c-0.3,0.76 14.15,1.34 20.84,0.78a3,3 0 0 0 1.93,-0.66a2,2 0 0 0 -0.53,-2.89a5.84,5.84 0 0 0 -3.16,-0.86l-11.24,-0.84a69,69 0 0 0 14.64,-11.55c2.14,-2.21 4.27,-5.12 3.49,-8.11c-0.64,-2.4 -3,-3.92 -5.09,-5.19a48.3,48.3 0 0 1 -0.13,-11.89c0.5,-3.2 1.3,-5.49 3.25,-7.57c0,0.07 1,9.81 3.82,11.05c2.82,1.24 12.39,-4 12.39,-4c0,0 1.52,3.63 1.93,3.53c0.41,-0.1 2.81,-5.66 1.98,-7.22z"/>
   <path id="path20" fill="#ff9c57" d="m302.05082,238.2589c-1.44,-0.78 -2.2,-4.89 -1.1,-5.38c1.1,-0.49 3.88,1.1 3.82,3.42c0.72,-0.37 2.38,-0.79 2.76,-1.21a2.82,2.82 0 0 1 -1.49,-2.2c-0.57,-2.32 1.15,-2.83 2,-2.14c0.85,0.69 2,2.71 1.48,4.08c2.53,-1.32 5.78,-0.66 8.19,0.87a11,11 0 0 1 4.66,6.92a3,3 0 0 0 0.8,1.78c1.09,0.86 2.74,-0.35 4,0.11c1.09,0.38 -0.32,4.73 -1.29,5.35a22.76,22.76 0 0 1 -8.82,3.3c-2.93,0.43 -6.1,0.24 -8.54,-1.43a11.76,11.76 0 0 1 -3,-3.12c-2.98,-4.43 -2.24,-5.31 -3.47,-10.35z"/>
   <path id="path22" fill="#f66a0a" d="m285.98082,256.7189a74.7,74.7 0 0 0 -5.53,8.66a66.28,66.28 0 0 0 -6.37,13a94.73,94.73 0 0 1 11.59,-6.28l-0.34,-0.21a48.3,48.3 0 0 1 -0.13,-11.89a19.87,19.87 0 0 1 0.78,-3.28z"/>
   <path id="path24" fill="#ff7000" d="m236.11082,297.1089c-0.54,-5.66 13.7,-18.14 4.28,-20.93a1,1 0 0 1 -0.58,-1.43c2.71,-3.75 7.91,-6.82 9.23,-11.39c1.32,-4.57 -1.85,-8.14 -6,-9.15c-1.57,-0.38 -3.7,-0.7 -4.85,-2c-1.35,-1.49 -1.21,-4 -3.08,-5.21c-2.88,-1.83 -7.44,0.16 -10,1.55c-4.22,2.24 -7.53,5.92 -10.86,9.27c-5.66,5.7 -12.27,12.95 -20.82,13.63c-9.54,0.77 -14.53,-6.87 -18.9,-14c1,6.65 6,18.07 18.21,17.75c13,-0.33 18.74,-6.7 24.48,-12.16c5.74,-5.46 15.71,-7.6 16.18,-0.34c0.47,7.26 -5.69,25 -4.76,30.81c0.93,5.81 3.5,9.13 14.09,8.81a20.75,20.75 0 0 0 2.4,-0.24c-4.45,0.57 -8.53,0.29 -9.02,-4.97z"/>
   <path id="path26" fill="#ffd1ac" d="m316.87082,239.1389a12.1,12.1 0 0 1 3.65,4c1.84,3 4.11,4.05 7,3.43c0.21,-1 0.21,-1.88 -0.26,-2c-1.3,-0.46 -2.95,0.75 -4,-0.11a3,3 0 0 1 -0.8,-1.78a11,11 0 0 0 -4.66,-6.92a9.68,9.68 0 0 0 -5.46,-1.55c-0.89,0.23 -1.78,0.46 -2.67,0.66l-0.06,0l0,0c-0.62,0.14 -1.24,0.24 -1.87,0.32c-0.65,0.25 -1.28,0.53 -1.9,0.83c0.12,0.18 0.25,0.35 0.38,0.51a17.52,17.52 0 0 1 10.65,2.61z" opacity="0.8"/>
   <path id="path28" fill="#ffd1ac" d="m247.82082,240.0389c7.4,9.47 8.18,22.17 6.51,34c2.34,-6.33 4.58,-12.9 4.33,-17.35c-0.48,-8.92 -7.77,-29.57 -26.27,-29.71l-1,0c6.58,2.82 12.72,8.32 16.43,13.06z" opacity="0.8"/>
   <path id="path30" fill="#f66a0a" d="m283.51082,297.5789l-5.57,-0.43a6.45,6.45 0 0 1 2.78,2.69a3.44,3.44 0 0 1 0.37,2.34c1.55,0 3,-0.09 4.18,-0.19a3,3 0 0 0 1.93,-0.66a2,2 0 0 0 -0.53,-2.89a5.84,5.84 0 0 0 -3.16,-0.86z"/>
   <circle id="circle32" fill="#2f363d" r="1.34" cy="244.848901" cx="327.14081"/>
   <path id="path34" fill="#ffd1ac" d="m285.33082,271.8589c-4.77,0 -9.83,5.5 -11.79,7.16c10.79,-7.09 14.69,-3.82 15.29,1.5a8.3,8.3 0 0 1 -0.14,2.59c1.36,-1.84 2.29,-3.93 1.73,-6.06c-0.64,-2.4 -2.6,-5.19 -5.09,-5.19z" opacity="0.8"/>
   <path id="path36" fill="#ffd1ac" d="m295.55082,255.7689l0,-6.75a3.29,3.29 0 0 0 -2.48,2.24c-0.42,1 -0.63,4.91 0,5.79c1.16,1.54 6.94,-0.33 8.8,-0.56a28,28 0 0 1 6.82,-0.12a1.7,1.7 0 0 0 -0.15,-0.6c-0.8,-1.55 -12.99,0 -12.99,0z" opacity="0.8"/>
   <path id="path38" fill="#ff7000" d="m151.03915,289.0603c0,0 1.73,12.95 5.08,16.55c3.35,3.6 17.29,13.25 18,11.4c-6.77,-8.45 -14,-29.49 -14,-29.49l-9.08,1.54z"/>
   <path id="path40" fill="#ff7000" d="m106.50915,289.9103a0.79,0.79 0 0 0 -0.38,0.29c-0.16,0.25 0,0.57 0.14,0.82a38.26,38.26 0 0 1 3.65,8.71c0.62,2.19 1.75,5.22 3.77,4.16c3.51,-1.85 0.64,-6.46 0,-10.38c0.4,2.42 8.16,-0.38 10.69,-4c3.24,-4.61 -4.46,-5.29 -7.26,-4.59c-3.61,0.92 -7.26,3.41 -10.61,4.99z"/>
   <path id="path42" fill="#ff9c57" d="m136.15915,261.8203c-4.66,-0.54 -9.52,-0.37 -13.81,1.52c-4.12,1.81 -7.41,5.06 -10.4,8.42a12.39,12.39 0 0 1 -3.06,2.77a8.48,8.48 0 0 1 -3.84,0.91c-6.26,0.22 -12.15,-3.28 -16.42,-7.85c-4.27,-4.57 -7.24,-10.18 -10.43,-15.56c-5.12,-8.64 -11.27,-17.16 -20.11,-21.93c-12.25,-6.62 -28.21,-4.55 -39.39,3.76c-11.18,8.31 -17.66,22.06 -18.66,35.95c-0.22,3.07 0.43,7 3.41,7.73l4.65,-8.92c2.28,-4.39 4.68,-8.91 8.57,-12c3.89,-3.09 9.74,-4.21 13.78,-1.36c3.17,2.24 4.49,6.32 4.9,10.18c0.41,3.86 0.13,7.81 1,11.59c2.19,9.19 11.16,15.56 20.43,17.38a36.12,36.12 0 0 0 20.1,-1.83c10.57,-4.16 19.79,-13.43 31.12,-12.69c1.48,4 5.41,6.72 9.53,7.85c4.12,1.13 8.47,0.94 12.74,0.73l-5.57,6.67a56.84,56.84 0 0 0 11.62,15.72c2.28,-5.8 0.41,-11.71 -3.21,-16.8a9.17,9.17 0 0 1 4.24,-4.13c4.16,2.24 15.21,1.63 19.88,1c-0.2,3.38 0.51,11.21 2.67,14.55c2.16,3.34 9.17,10.35 13.16,12.51c2.52,1.36 10.25,3.16 11.4,0.87c-9.46,-4 -18.88,-13.73 -18.84,-24c0,-5 4.35,-8.31 4.12,-12.55c-0.19,-3.67 -6.16,-8 -8.77,-10.06a49.21,49.21 0 0 0 -24.81,-10.43z"/>
   <path id="path44" fill="#ff7000" d="m83.61915,278.8603c-3.72,0 -7.56,0.77 -10.33,-2.21a25.63,25.63 0 0 1 -2.36,-3.8c-2.21,-3.37 -4.91,-3.78 -8.79,-3.55c-4.74,0.28 -6.38,-1.52 -8.27,-5.77c-5.38,-12 -19,-21.35 -32.06,-14.36c-10,5.38 -16.15,17.18 -18.85,27.83a1,1 0 0 1 -0.13,0.27a3.51,3.51 0 0 0 0.66,0.27l4.65,-8.92c2.28,-4.39 4.68,-8.91 8.57,-12c3.89,-3.09 9.74,-4.21 13.78,-1.36c3.17,2.24 4.49,6.32 4.9,10.18c0.41,3.86 0.13,7.81 1,11.59c2.19,9.19 11.16,15.56 20.43,17.38a36.12,36.12 0 0 0 20.1,-1.83c7.52,-3 14.36,-8.49 21.76,-11.18c-4.64,-1.98 -9.64,-2.56 -15.06,-2.54z"/>
   <path id="path46" fill="#ffd1ac" d="m134.03915,274.8603c0.22,0 9,5.91 8.89,8.67c-0.11,2.76 -8,7.05 -8,7.05c0,0 3.85,-4.93 3,-7.86c-0.85,-2.93 -3.89,-7.86 -3.89,-7.86z" opacity="0.6"/>
   <path id="path48" fill="#fb8532" d="m167.03915,277.3803c-0.88,3 -2.56,5.8 -3.31,8.95a13.46,13.46 0 0 0 2.21,11.33a16.57,16.57 0 0 1 -0.24,-2.81c0,-5 4.35,-8.31 4.12,-12.55c-0.1,-1.6 -1.28,-3.31 -2.78,-4.92z"/>
   <path id="path50" fill="#ff9c57" d="m173.03915,271.3403c2.29,-0.91 4.2,1.45 2.58,7.05l2.92,0.07a10.53,10.53 0 0 1 -0.54,-4.74a2.49,2.49 0 0 1 2.78,-2.25c1.57,0.08 2.12,1.43 2.18,3a9,9 0 0 1 -1,4.39a12,12 0 0 1 4.94,11.1a36.87,36.87 0 0 0 -0.7,4.52a4.07,4.07 0 0 0 2,3.82a16,16 0 0 0 2.51,0.56c0.82,0.23 1.66,0.92 1.55,1.77c-0.1,0.7 -0.78,1.15 -1.42,1.47a17.78,17.78 0 0 1 -15.45,0.05c-4.23,-2.06 -7.64,-6.08 -8.24,-10.74a11.22,11.22 0 0 1 2.52,-8.51c0.7,-0.84 2.95,-1.89 3.2,-2.88c-1.13,-1.59 -2.92,-7.48 0.17,-8.68z"/>
   <circle id="circle52" fill="#2f363d" r="1.33" cy="300.030261" cx="190.86914"/>
   <path id="path54" fill="#ffd1ac" d="m65.37915,246.1903c5.29,6 9.36,12.92 14.45,19.06a36.58,36.58 0 0 0 19.71,12.59c0.57,-0.08 1.13,-0.18 1.7,-0.31c-5.49,-0.5 -10.59,-3.71 -14.4,-7.78c-4.27,-4.58 -7.23,-10.18 -10.42,-15.57c-5.12,-8.64 -11.28,-17.16 -20.12,-21.93a34.48,34.48 0 0 0 -19.89,-3.72c11.17,2.17 21.71,9.41 28.97,17.66z" opacity="0.6"/>
   <path id="path56" fill="#ffd1ac" d="m152.33915,271.0803c4.87,2.78 8.66,6.83 12.12,11.17a22.63,22.63 0 0 1 1,-3.5a43.88,43.88 0 0 0 -8.69,-7.65c-7.35,-4.84 -15.86,-6.24 -24.36,-7.68l2.94,1.36c5.62,2.27 11.69,3.29 16.99,6.3z" opacity="0.6"/>
   <path id="path126" fill="#cacfd3" d="m638.21718,104.46651c-15.3,8.93 -31.95,13.81 -51.19,18.39a531.88,531.88 0 0 1 -56.63,9.76l40.65,-56.37l55.42,-23.91l23.8,36.13c0,0 -3.14,4.3 -12.05,16z"/>
   <path id="path128" fill="#cacfd3" d="m689.22718,182.79651c-20.69,9.27 -211,62 -262.13,64.8l88.5,-108.85l16.56,0c16.55,0 33.68,-4.32 48.46,-6.18c14.78,-1.86 50.63,-11 67.24,-25.07c4.84,-4.15 10.4,-14.73 10.4,-14.73l41.32,61.77c0,0 10.34,19 -10.35,28.26z"/>
   <polygon id="polygon130" fill="#ffffff" points="590.9571533203125,97.66650772094727 591.6972045898438,80.49650955200195 576.9771728515625,93.79651260375977 576.9771728515625,80.49650955200195 556.2371826171875,105.71651077270508 571.0171508789062,76.24650955200195 609.6571655273438,15.476509094238281 638.2171630859375,72.17650985717773 623.4671630859375,66.79651260375977 615.34716796875,93.79651260375977 604.6171875,72.17650985717773 "/>
   <ellipse id="ellipse6" fill="#cacfd6" ry="16.1" rx="99.970001" cy="297.556511" cx="435.85718"/>
   <path id="path14" stroke-width="2px" fill="none" stroke="#e1e4e8" d="m470.32009,241.27363c0,0 110.26,-9.9 124,-19.52" stroke-miterlimit="10"/>
   <path id="path58" fill="url(#svg_7)" d="m515.76718,221.45651c-0.37,-1.68 78.91,-92.89 85.72,-99.15c6.81,-6.26 67.73,-78 72.14,-80.45c2.68,-6 -6.2,-11.06 -10.21,-8.33c-3.73,7.3 -67.86,83.12 -73.66,89.3c-5.8,6.18 -52.29,56.46 -72.64,72.56c-4.4,12.23 -8.47,14.29 -11.61,17.84c-0.54,1.89 0.14,4.45 3.81,6.89c3.67,2.44 6.45,1.34 6.45,1.34z"/>
   <path id="path60" fill="url(#svg_8)" d="m652.38718,59.06651c-5.79,5.67 -27.63,31.4 -33.29,38.11c-12.21,14.47 -62.7,71.66 -75.59,86.07c-6,6.76 -28.89,30.24 -34.94,36.35c0.24,0.18 0.47,0.37 0.75,0.55c3.66,2.45 6.45,1.31 6.45,1.31c-0.37,-1.68 78.91,-92.89 85.72,-99.15c6.81,-6.26 67.73,-78 72.14,-80.45a5.23,5.23 0 0 0 -0.26,-4.91c-6.36,7.93 -13.8,15.08 -20.98,22.12z"/>
   <path id="path62" fill="#3f007f" d="m507.11718,211.58651c-0.56,0.55 -1.1,1.09 -1.61,1.67c-0.54,1.89 0.14,4.45 3.81,6.89c3.67,2.44 6.45,1.31 6.45,1.31a5.82,5.82 0 0 1 1,-1.6a18.86,18.86 0 0 0 -9.65,-8.27z"/>
   <path id="path64" stroke-width="2.5px" fill="none" stroke="#9152c0" d="m434.46718,46.25651c-3.68,-12.85 -14.32,-17.84 -18.14,-18.61a1.05,1.05 0 0 0 -1.21,1.31l4.68,17.3c0,0 -9.79,13.57 -9.79,27.89c0,14.32 1.47,19.8 0,24.2a29.19,29.19 0 0 0 3.3,24.94a59.9,59.9 0 0 0 31.93,25.25" stroke-miterlimit="10"/>
   <path id="path66" stroke-width="2.5px" fill="none" stroke="#9152c0" d="m415.67718,27.62651c0,0 8.8,-9.85 30.26,-2.19a61.84,61.84 0 0 1 47.6,-1.61c26,9.82 33.11,25.77 33.11,25.77" stroke-miterlimit="10"/>
   <path id="path68" stroke-width="2.5px" fill="none" stroke="#9152c0" d="m502.45718,60.50651c0,0 16.22,-13.9 30.13,-10.93c13.13,10.16 4.63,36.42 1.54,40.28" stroke-miterlimit="10"/>
   <path id="path70" stroke-width="2.5px" fill="none" stroke="#9152c0" d="m513.65718,59.34651c0,0 11.43,-6.82 13.91,-4.22c2.92,3.07 1.76,19.93 0.77,26.24" stroke-miterlimit="10"/>
   <path id="path72" stroke-width="2.5px" fill="none" stroke="#9152c0" d="m410.00718,74.14651c0,0 1.3,-18.32 11,-15.19c9.7,3.13 15,23.56 25.45,26.27c10.45,2.71 48.66,-9.24 62.18,2.33c13.52,11.57 7.34,25.09 5,29.72c-2.34,4.63 -9.63,16.35 -9.63,16.35c0,0 9.62,9 -10.46,15.56" stroke-miterlimit="10"/>
   <path id="path74" stroke-width="2.5px" fill="none" stroke="#9152c0" d="m537.63718,81.36651c0,0 4.62,27.2 -7.44,43.64c-13,17.7 -41.14,30.1 -67.36,27.32" stroke-miterlimit="10"/>
   <path id="path76" stroke-width="2.5px" fill="none" stroke="#9152c0" d="m463.56718,155.13651c0,0 -1.79,-8.27 -9.27,-8.81c-7.48,-0.54 -25.63,11.75 -35,26.16c-9.37,14.41 -7.74,21.09 2.77,28.87c8,5.89 27.94,10.21 46.09,8.35l21.9,-2.17a3.65,3.65 0 0 1 2.27,2.7c0,1.43 -3.4,11.62 2.22,12.46c5.62,0.84 6.46,-3.31 6.46,-7.46c4.77,-2.8 15.57,-9 16.07,-26.64c0.5,-17.64 -12.7,-28.5 -27.58,-26.26c-14.88,2.24 -39,11.51 -52.5,8.43" stroke-miterlimit="10"/>
   <path id="path78" stroke-width="2.5px" fill="none" stroke="#9152c0" d="m457.00718,155.60651c0,0 -7.6,8.93 -7.73,15.41" stroke-miterlimit="10"/>
   <line id="line80" stroke-width="2.5px" fill="none" stroke="#9152c0" y2="152.736511" x2="468.18719" y1="165.166511" x1="476.43719" stroke-miterlimit="10"/>
   <line id="line82" stroke-width="2.5px" fill="none" stroke="#9152c0" y2="167.526511" x2="467.02722" y1="158.126511" x1="465.14722" stroke-miterlimit="10"/>
   <ellipse id="ellipse84" stroke-width="2.5px" fill="none" stroke="#0366d6" transform="rotate(-60 -44.146591186523445,655.0889892578125) " ry="6.58" rx="2.74" cy="655.089011" cx="-44.14659" stroke-miterlimit="10"/>
   <path id="path86" stroke-width="2.5px" fill="none" stroke="#9152c0" d="m443.59718,148.53651c0,0 -54.21,15.29 -78.83,27.52c-24.62,12.23 -79.06,42.92 -76.8,51.5c2.26,8.58 47.9,-8.09 62.59,-14.6c16.5,-7.32 64.43,-32.57 64.43,-32.57" stroke-miterlimit="10"/>
   <path id="path88" stroke-width="2.5px" fill="none" stroke="#9152c0" d="m434.81718,206.90651c0,0 -18.69,23.06 -29.61,29.7c-10.58,6.44 -39.86,21.91 -42.11,26.07c-3.35,6.18 -7.31,27.78 14.2,38.8c9.35,4.79 31.25,6.39 40.37,1.14c9.12,-5.25 8.79,-7.37 7.76,-8.21c-2.37,-1.93 -26.57,11.91 -37.21,10.38" stroke-miterlimit="10"/>
   <path id="path90" stroke-width="2.5px" fill="none" stroke="#9152c0" d="m381.69718,271.08651c0.78,-0.78 23.39,-3.9 32.84,4.6c7.66,6.91 7,19.25 5.81,19.66" stroke-miterlimit="10"/>
   <path id="path92" stroke-width="2.5px" fill="none" stroke="#9152c0" d="m414.53718,275.68651c0,0 18.22,-9.77 30.73,-28.52a163.63,163.63 0 0 0 18.3,-37.13" stroke-miterlimit="10"/>
   <path id="path94" stroke-width="2.5px" fill="none" stroke="#9152c0" d="m468.18718,209.70651l21.52,72.91c0,0 6.34,13.52 16.79,12.73c10.45,-0.79 31.37,-7.94 40.22,-19.66c4.39,-5.81 9.65,-15.81 7.46,-19.29c-2.43,-3.86 -5.66,-2 -7.53,-1.34c-2.7,-1 -21.3,-2.52 -26.71,7" stroke-miterlimit="10"/>
   <path id="path96" stroke-width="2.5px" fill="none" stroke="#9152c0" d="m499.43718,221.45651c0,0 16.22,34.94 23.59,46.52" stroke-miterlimit="10"/>
   <path id="path98" stroke-width="2.5px" fill="none" stroke="#9152c0" d="m531.44718,123.14651c0,0 40.64,-21.74 55.46,-26.32c14.82,-4.58 28.39,-9.81 35.69,-1.88c7.3,7.93 1.41,24.4 -3.59,30.46c-5.63,6.89 -15.23,14.61 -28,14.61c0,0 -15.87,1.05 -17.12,-13.77c-3.55,1.67 -8.84,1.42 -5.63,-4c4.59,-7.72 13.77,-17.32 38.4,-20.24" stroke-miterlimit="10"/>
   <path id="path100" stroke-width="2.5px" fill="none" stroke="#9152c0" d="m469.61718,152.70651c0,0 17.77,3.65 44,-1.2c26.23,-4.85 60.66,-22.89 60.66,-22.89" stroke-miterlimit="10"/>
   <path id="path102" stroke-width="2.5px" fill="none" stroke="#9152c0" d="m390.67718,80.02651c11.11,4.56 19.17,18 19.17,18" stroke-miterlimit="10" stroke-linecap="round"/>
   <path id="path104" stroke-width="2.5px" fill="none" stroke="#9152c0" d="m390.67718,93.47651c5.31,0.38 14.51,3.85 18.09,9.41" stroke-miterlimit="10" stroke-linecap="round"/>
   <path id="path106" stroke-width="2.5px" fill="none" stroke="#9152c0" d="m512.71718,134.43651c7,0.8 26.88,10.28 32.4,17.73" stroke-miterlimit="10"/>
   <path id="path108" stroke-width="2.5px" fill="none" stroke="#9152c0" d="m541.89718,148.82651a21.51,21.51 0 0 1 3.22,3.35" stroke-miterlimit="10" stroke-linecap="round"/>
   <path id="path110" stroke-width="2.5px" fill="none" stroke="#9152c0" d="m514.61718,139.39651c5.28,3.06 16,13.34 18.82,20.74" stroke-miterlimit="10" stroke-linecap="round"/>
   <ellipse id="ellipse112" stroke-width="2.5px" fill="none" transform="rotate(-30 128.80532836914057,465.7285766601562) " ry="3.95" rx="22.059999" cy="465.728591" cx="128.80533" stroke-miterlimit="10" stroke="#0366d6"/>
   <ellipse id="ellipse114" stroke-width="2.5px" fill="none" stroke="#0366d6" transform="rotate(-24.90999984741211 228.90451049804673,425.39990234375) " ry="2.87" rx="19.84" cy="425.399891" cx="228.90451" stroke-miterlimit="10"/>
   <path id="path116" stroke-width="2.5px" fill="none" stroke="#9152c0" d="m431.55718,158.58651c-2.14,1.1 -7.35,3.35 -9.47,4.12c-9.35,3.41 -17.27,5.21 -17.71,4c-0.44,-1.21 6.8,-4.91 16.14,-8.32a84.93,84.93 0 0 1 16.61,-4.32" stroke-miterlimit="10"/>
   <path id="path118" stroke-width="2.5px" fill="none" stroke="#9152c0" d="m475.67718,235.06651c0,0 2.38,3.26 4.09,2.75c1.71,-0.51 2.23,-12 0,-18.84c-2.23,-6.84 -5.49,-9.88 -6,-9.83" stroke-miterlimit="10"/>
   <path id="path120" stroke-width="2.5px" fill="none" stroke="#9152c0" d="m480.22718,250.49651c0.19,0.63 7.18,0.4 11.28,14.38c4.1,13.98 3.13,21.95 0,20.86" stroke-miterlimit="10"/>
   <path id="path122" stroke-width="2.5px" fill="none" stroke="#9152c0" d="m569.06718,121.10651c-10.54,0 -25,11.47 -24,13.33c2,3.82 20.82,-1.63 20.82,-1.63" stroke-miterlimit="10"/>
   <path id="path124" stroke-width="2.5px" fill="none" stroke="#9152c0" d="m506.60718,152.64651c0,0 31.85,-11 33.08,-14.24c1.23,-3.24 -23.11,-0.32 -24.09,0.34" stroke-miterlimit="10"/>
   <path id="path132" fill="#05ad56" d="m742.04718,287.26651l12,-90.94l3.88,-108.63c0,0 5.13,-2 11.64,1.65c6.51,3.65 8.66,8.66 8.66,8.66l-11.66,87.32l2.5,101.94l-12.85,11.2l-14.17,-11.2z"/>
   <path id="path134" fill="#008440" d="m778.25718,98.00651c0,0 -2.15,-5 -8.66,-8.66a16.82,16.82 0 0 0 -1.71,-0.84c-1,8.33 -0.26,16.74 -0.21,25.14a211.94,211.94 0 0 1 -2.07,28.48a525.32,525.32 0 0 0 -4.46,58.51c-0.18,9.9 0.76,19.71 0.92,29.6a155.26,155.26 0 0 1 -2.12,27.56c-2,12.4 -5.39,24.49 -9.06,36.5l5.33,4.21l12.88,-11.24l-2.5,-101.94l11.66,-87.32z"/>
   <path id="path136" fill="#8fd68f" d="m726.54718,116.24651c-1.78,0.14 -5.79,71.95 -5.79,71.95l74.83,8.13l6.24,-87.05l-75.28,6.97z"/>
   <polygon id="polygon138" fill="#009648" points="804.9472045898438,206.8065071105957 816.9672241210938,129.44650650024414 801.8272094726562,109.27650833129883 795.5872192382812,196.32651138305664 "/>
   <polygon id="polygon140" fill="#5f00bf" points="751.5671997070312,158.03651809692383 749.9971923828125,168.65651321411133 735.9071655273438,148.0065040588379 754.6171875,135.35651016235352 754.6171875,146.22650527954102 779.9971313476562,143.72650527954102 776.4371948242188,167.10651016235352 "/>
   <polygon id="polygon142" fill="#00bf5f" points="749.3071899414062,154.73651504516602 747.7971801757812,164.66650772094727 734.1671752929688,145.36650466918945 752.2572021484375,133.53651809692383 752.2572021484375,143.69650650024414 776.8071899414062,141.35651016235352 773.3671264648438,163.21651077270508 "/>
   <path id="path144" fill="#007f7f" d="m774.98718,303.16651c0,0 4.65,-48 2.86,-54.77c-1.07,3.93 -20.4,35.08 -20.4,35.08l0,-30.43c0,0 -4.3,14 -5.73,18.26c-1.43,-6.45 -11.45,-25.78 -10,-23.63c1.45,2.15 1.79,22.55 0,22.55c-1.43,-0.35 -6.8,-19 -12.17,-25.06c2.14,2.15 3.58,17.9 5.37,25.78c-0.72,-2.86 -15.23,-12.89 -22.2,-14.32c0.72,4.65 11.1,13.25 13.25,19.33c2.15,6.08 -1.44,12.89 -1.44,12.89l13.25,9.91l37.21,4.41z"/>
   <path stroke="null" id="path146" fill="#b1b7bb" d="m750.19718,302.67651c-0.34,-1 7.41,-25.95 7.41,-25.95c0,0 22.91,-14.15 27,-16.51c4.09,-2.36 9.77,-2 9.77,-2l12.46,-4.71c0,0 34.37,9.09 35.38,9.43c1.01,0.34 7.07,11.45 9.77,15.16c2.7,3.71 4,6.06 4.38,12.13l0.34,6.06l-18.2,19.54l-20.89,0c0,0 -14.82,5.73 -18.19,4.72c-3.37,-1.01 -15.5,-4 -19.88,-7.75c-4.38,-3.75 -29.35,-10.12 -29.35,-10.12z"/>
   <path id="path148" stroke-width="2px" fill="none" stroke="#9152c0" d="m795.58718,262.40651c0,0 -1.86,-17.37 14.5,-36" stroke-miterlimit="10"/>
   <circle id="circle150" stroke-width="2px" fill="none" stroke="#9152c0" r="2.32" cy="225.156511" cx="811.09718" stroke-miterlimit="10"/>
   <circle id="circle152" stroke-width="2px" fill="none" stroke="#9152c0" r="2.1" cy="230.986501" cx="820.29718" stroke-miterlimit="10"/>
   <path id="path154" stroke-width="2px" fill="none" stroke="#959da5" d="m802.24718,237.38651c0,0 4.56,2.67 8.69,0a82.36,82.36 0 0 0 7.81,-5.81" stroke-miterlimit="10"/>
   <path id="path156" fill="#007f7f" d="m779.27718,245.15651a16.7,16.7 0 0 1 -0.65,-7.86c0.26,-1.23 1.06,-2.64 2.33,-2.59a2.7,2.7 0 0 1 1.55,0.73a19.49,19.49 0 0 1 2.8,2.87a76.78,76.78 0 0 1 14.36,26.27c-0.38,-4.77 2.15,-9.44 5.77,-12.57c3.62,-3.13 8.22,-4.9 12.86,-6.09c1.73,-0.45 3.82,-0.73 5.07,0.54a3.43,3.43 0 0 1 0.66,3.39a7,7 0 0 1 -2,2.94a35.35,35.35 0 0 1 -6.94,4.55a104.64,104.64 0 0 0 -14.7,10.1a3,3 0 0 1 -1.43,0.79a2.53,2.53 0 0 1 -1,-0.12c-9.76,-2.46 -16.15,-13.97 -18.68,-22.95z" opacity="0.5"/>
   <path id="path158" fill="#cacfd3" d="m788.54718,293.94651a104.82,104.82 0 0 1 17.1,-13.08c4.35,0.88 8.29,0.17 11.61,0.67c7,-6.18 15.21,-13.36 22.38,-19.34c-8.21,-2.22 -32.76,-8.71 -32.76,-8.71l-12.47,4.71c0,0 -5.73,-0.33 -9.77,2c-3.23,1.89 -18.47,11.28 -24.49,15c3.8,5.78 22.41,14.27 28.4,18.75z"/>
   <polygon id="polygon160" fill="#007f3f" points="804.9472045898438,206.82651138305664 795.5872192382812,196.34651565551758 720.7572021484375,188.21651077270508 720.7572021484375,194.34651565551758 "/>
   <path id="path162" fill="#ffffff" d="m682.74718,87.14651c0.71,-2.15 24.06,-29.06 24.06,-29.06l25.8,32.25l-4.3,0l11.47,12.18c0,0 -15.05,1.43 -17.2,-2.87c-1.48,3.1 -5.69,8.47 -7.5,7.87c-1.81,-0.6 -11.62,-13.23 -11.62,-13.23c0,0 -10,18 -11.43,17.44c-1.43,-0.56 -4.98,-23.26 -4.98,-23.26l-5.83,5.11l3.12,-5.07l-1.59,-1.36z"/>
   <path id="path164" stroke-width="0.5px" fill="none" stroke="#e1e4e8" d="m839.63718,262.19651c-8.21,-2.22 -32.76,-8.71 -32.76,-8.71l-12.47,4.71c0,0 -5.73,-0.33 -9.77,2c-3.23,1.89 -18.47,11.28 -24.49,15" stroke-miterlimit="10"/>
   <path id="path166" fill="#ffd1ac" d="m172.13915,275.0703c2.88,-0.25 1.27,4.88 2.94,5.49c1.26,0.45 2.87,-0.54 4.45,0.15a7.76,7.76 0 0 1 3.58,3.58c1.15,2.16 1.05,4.23 0.94,6.59c-0.14,3.14 0.13,6.29 3.7,7.2a4.3,4.3 0 0 1 -1.63,-3.6a36.87,36.87 0 0 1 0.7,-4.52a12,12 0 0 0 -4.94,-11.1a9,9 0 0 0 1,-4.39c-0.06,-1.57 -0.61,-2.92 -2.18,-3a2.49,2.49 0 0 0 -2.78,2.25a10.53,10.53 0 0 0 0.54,4.74l-2.92,-0.07c1.62,-5.6 -0.29,-8 -2.58,-7.05c-1.46,0.57 -1.81,2.23 -1.66,4a1.88,1.88 0 0 1 0.84,-0.27z" opacity="0.6"/>
   <ellipse fill="none" stroke-width="2px" fill-opacity="null" cx="372.614207" cy="180.905276" id="svg_1" rx="23" ry="3.791301" transform="rotate(-24 372.6141967773438,180.9052734375001) " stroke="#9152c0"/>
   <ellipse fill="none" stroke-width="2px" fill-opacity="null" cx="320.882705" cy="208.50835" id="svg_2" rx="23" ry="4.451443" stroke="#9152c0" transform="rotate(-27 320.8826904296874,208.50834655761722) "/>
   <ellipse stroke="#9152c0" fill="none" stroke-width="2px" stroke-opacity="null" fill-opacity="null" cx="444.151498" cy="124.850209" id="svg_3" rx="10.5" ry="5.210914" transform="rotate(14 444.1515197753906,124.85020446777348) "/>
   <text font-style="italic" font-weight="bold" xml:space="preserve" text-anchor="start" font-family="'Times New Roman', Times, serif" font-size="24" id="svg_10" y="298.025146" x="752.358551" stroke-opacity="null" stroke-width="0" stroke="null" fill="#5f00bf">daramirra</text>
  </g>
  <text stroke="null" transform="matrix(6.009346008300781,0,0,1,-4191.413730382919,0) " xml:space="preserve" text-anchor="start" font-family="Helvetica, Arial, sans-serif" font-size="24" id="svg_9" y="295.025146" x="823.358551" fill-opacity="null" stroke-opacity="null" stroke-width="0" fill="#000000"/>
 </g>
</svg>