<svg xmlns="http://www.w3.org/2000/svg" viewBox="0 0 100 100"><defs><style>.a{fill:#5382a1;}.b{fill:#e76f00;}</style></defs><title>Java</title><path class="a" d="M38.2,69.7s-3.5,2,2.4,2.7,10.8.7,18.7-.8A33.9,33.9,0,0,0,64.2,74c-17.6,7.6-39.9-.4-26-4.3"/><path class="a" d="M36,59.8s-3.9,2.9,2.1,3.5a72,72,0,0,0,24-1.1,12,12,0,0,0,3.7,2.2c-21.3,6.3-45.1.5-29.8-4.6"/><path class="b" d="M54.2,43.1c4.3,5-1.2,9.5-1.2,9.5s11.1-5.7,6-12.8-8.3-10,11.3-21.4c0,0-30.8,7.7-16.1,24.7"/><path class="a" d="M77.5,77s2.6,2.1-2.8,3.7c-10.2,3.1-42.4,4.1-51.3.2-3.2-1.4,2.8-3.4,4.7-3.8a12,12,0,0,1,3.1-.3c-3.6-2.6-23.1,4.9-9.9,7.1,36,5.8,65.6-2.7,56.2-6.9"/><path class="a" d="M39.8,49.6S23.4,53.5,34,54.9c4.5.6,13.4.5,21.7-.2s13.6-1.8,13.6-1.8a25.4,25.4,0,0,0-4.1,2.2C48.5,59.5,16.4,57.5,25.6,53a31.4,31.4,0,0,1,14.2-3.4"/><path class="a" d="M69.2,66c16.9-8.7,9.1-17.2,3.7-16a7.2,7.2,0,0,0-2,.5,2.9,2.9,0,0,1,1.5-1.1c10.8-3.8,19.1,11.2-3.5,17.1a1.4,1.4,0,0,0,.3-.5"/><path class="b" d="M59,0s9.4,9.4-8.9,23.8c-14.6,11.5-3.3,18.1,0,25.7C41.6,41.7,35.3,35,39.5,28.6,45.7,19.4,62.8,14.9,59,0"/><path class="a" d="M41.5,89.9c16.2,1,41.2-.6,41.7-8.3,0,0-1.1,2.9-13.4,5.2a136.3,136.3,0,0,1-41.1.7s2.1,1.7,12.8,2.4"/></svg>