<svg xmlns="http://www.w3.org/2000/svg" xmlns:xlink="http://www.w3.org/1999/xlink" viewBox="0 0 100 100"><defs><style>.a,.b{stroke:#2c2c2c;}.a,.b,.d{stroke-miterlimit:10;}.a{stroke-width:0.22px;fill:url(#a);}.b{fill:#fff;stroke-width:0.11px;}.c{fill:url(#b);}.d{stroke:#0c0000;stroke-width:0.15px;fill:url(#c);}.e{fill:url(#d);}</style><radialGradient id="a" cx="-42.09" cy="-1152.6" r="8.89" gradientTransform="translate(292.8 7494.4) scale(6.43)" gradientUnits="userSpaceOnUse"><stop offset="0" stop-color="#2b2b2b"/><stop offset="1" stop-color="#838383"/></radialGradient><radialGradient id="b" cx="-39.73" cy="-1163.83" r="8.59" gradientTransform="translate(292.8 7494.4) scale(6.43)" gradientUnits="userSpaceOnUse"><stop offset="0" stop-color="#fff" stop-opacity="0.8"/><stop offset="1" stop-color="#fff" stop-opacity="0.2"/></radialGradient><linearGradient id="c" x1="-37.89" y1="-1157.2" x2="-33.84" y2="-1161.96" gradientTransform="translate(292.8 7494.4) scale(6.43)" gradientUnits="userSpaceOnUse"><stop offset="0" stop-color="#227716"/><stop offset="1" stop-color="#20b228"/></linearGradient><radialGradient id="d" cx="126.66" cy="-1070.54" r="2.81" gradientTransform="matrix(5.05, -3.98, 11.31, 14.38, 11530.58, 15934.24)" gradientUnits="userSpaceOnUse"><stop offset="0" stop-color="#fff" stop-opacity="0.4"/><stop offset="1" stop-color="#fff" stop-opacity="0"/></radialGradient></defs><title>Selenium</title><path class="a" d="M73,86.2,25.9,84.8c-5.7-.2-12.3-7-12.2-12.6l.2-47.4c.1-5.7,6.6-11.1,12.3-11l46.5,1.7c5.6.1,12.1,5.3,12,11V74.8A11.4,11.4,0,0,1,73,86.2Z"/><path class="b" d="M17.8,68.4l7.5-1.8a11.6,11.6,0,0,0,2.5,4c1.1.9,4.1,1.4,6.1,1.2a3.4,3.4,0,0,0,3-3.2,2.7,2.7,0,0,0-1.7-2.7,25.9,25.9,0,0,0-4.3-1.5c-1.8-.5-5.1-1.2-7.7-3S20,55.6,20,54.2a10.5,10.5,0,0,1,1.2-5c1-1.6,4-4.9,9.9-4.9s8.4,1.9,9.8,3,3.5,5,3.5,5l-6.8,2.5c-1.2-3.4-3.3-4.6-6.3-4.6s-3.6,1.9-3.6,3,.6,2.4,3.4,3.2,7.5,1.9,9.7,3.3a9.7,9.7,0,0,1,4.3,7.8,9.3,9.3,0,0,1-2.5,6.6c-1.2,1.3-4,4.2-10,4.2S21,75.8,17.8,68.4Zm52.1-.8S71,53.7,58,53.7s-11.4,12-11.4,12.9c0,3.5,2.1,12.4,12,12.4s11.3-8.4,11.3-8.4l-6.8-.8c-.3.9-1,4-4.2,4a4.4,4.4,0,0,1-4.4-3.4,10.5,10.5,0,0,1-.2-2.8Zm-15.7-4s-.2-5.3,4.4-5.3,4.3,5.3,4.3,5.3Z"/><path class="c" d="M16.3,29.7V53.2s2.8,12.4,11.4,12.6,41.1,1.6,44.1,1.4,10.6-4.2,10.6-12V32c0-4.5-2.6-13.2-12.5-13.7s-37.9-1.2-41-1.2c-5.2,0-12.6,2-12.6,12.6Z"/><path class="d" d="M46.4,33.3,60.1,50.5,92.3,23.7l-4.5-9L61.1,37.5,51.6,26.7Z"/><path class="e" d="M47.2,33.1,60.5,45.2,82.4,28l-2.6-5.8L61,38.2,51.6,27.5Z"/></svg>