<svg width="580" height="400" xmlns="http://www.w3.org/2000/svg">
 <!-- Created with SVG Editor - http://github.com/mzalive/SVG Editor/ -->
 <defs>
  <linearGradient y2="0" x2="1" y1="0" x1="0" id="svg_186">
   <stop offset="0.039063" stop-color="#94a461"/>
   <stop offset="0.523438" stop-color="#6b5b9e"/>
   <stop offset="1" stop-color="#94a461"/>
  </linearGradient>
  <linearGradient y2="0" x2="1" y1="0" x1="0" id="svg_198">
   <stop offset="0.304688" stop-color="#7b30cc"/>
   <stop offset="0.890625" stop-color="#84cf33"/>
   <stop offset="0.914063" stop-color="#84cf33"/>
   <stop offset="1" stop-color="#84cf33"/>
  </linearGradient>
 </defs>
 <g>
  <title>background</title>
  <rect fill="#fff" id="canvas_background" height="402" width="582" y="-1" x="-1"/>
 </g>
 <g>
  <title>Layer 1</title>
  <metadata transform="matrix(0.021671666508950915,0,0,0.021671666508950915,0,0) " id="svg_175">image/svg+xml</metadata>

  <g stroke="null" id="svg_177">
   <g stroke="null" transform="matrix(0.039307948554299636,0,0,0.04103184416270464,-218.10315667904308,-181.75387512937561) " id="svg_90">
    <g stroke="null" id="svg_91">
     <ellipse stroke="url(#svg_198)" cx="12218.935486" cy="9455.155163" rx="87.230003" ry="8.57" fill="#f7f7f7" id="svg_174"/>
     <ellipse stroke="url(#svg_198)" cx="12377.217196" cy="9437.113783" rx="38.5" ry="8.57" fill="#f7f7f7" id="svg_173"/>
     <path stroke="url(#svg_198)" d="m13021.013536,9403.451403l-198,-4.27l-20.59,-61.16a142.6,142.6 0 0 0 17.77,-8c11.26,-6.27 12.58,-22.69 7.82,-33.31c-3.43,-1.31 -12.31,-1.71 -12.31,-1.71a48.88,48.88 0 0 1 0.83,14.71c-0.65,5 -12.33,11 -18.94,14l-24,-71.34c3.63,-2.07 39.84,-43.64 39.84,-43.64l16.21,0l69.46,78.37l22.9,-11.8l99.01,128.15z" fill="#f7f7f7" id="svg_172"/>
     <path stroke="url(#svg_198)" d="m12827.993536,9296.711403c0,0 10.72,28 -11.92,36.3c-22.64,8.3 -94.37,32.4 -82.59,43.23c26.69,24.53 127.29,27.22 127.29,27.22c0,0 -6.89,-42.43 -12.28,-61.07l-20.5,-45.68z" fill="#f7f7f7" id="svg_171"/>
     <path stroke="url(#svg_198)" stroke-width="0.731784" d="m12190.891286,9368.419303l17.51368,-35.23713l1.57729,17.46944l12.83834,-29.50205l2.9975,11.2827l6.01384,-19.79586l6.76166,27.49093l10.55722,-41.53465l7.9619,34.37645l11.09137,-20.35829c0,0 -11.93972,5.59874 -11.93972,4.11597c0,-1.48277 16.11233,-28.81179 16.11233,-28.81179c0,0 -14.83666,7.1156 -14.84295,5.64135c-0.006,-1.47425 12.56813,-16.44684 16.86013,-25.86329c4.29202,-9.41645 11.96486,-42.09708 11.96486,-42.09708c0,0 12.31676,40.21379 18.88989,44.55132c2.12401,-6.44239 8.87937,-24.76399 8.87937,-24.76399l-13.37876,7.58429c0,0 20.15926,-54.58134 22.62262,-66.92925c2.46335,-12.34791 1.88522,-8.10411 6.28406,2.66729c3.06662,9.14375 6.71138,39.05484 17.88444,56.05559c10.56979,12.78251 -7.59115,3.68136 -7.59115,3.68136l16.45167,40.47797l14.45334,-35.97852l8.57775,27.94258l12.78806,-36.14896l-14.45334,13.02112c0,0 12.88232,-24.32938 15.62846,-43.57985c2.74613,-19.25047 6.13953,-49.84329 6.13953,-49.84329l18.16093,44.55985c0,0 17.33144,-61.83329 17.98499,-70.21862c2.05488,29.52761 29.53508,100.05301 29.53508,100.05301c0,0 10.6829,-29.22083 11.66322,-40.05188c3.31798,10.72879 46.57117,189.42836 46.57117,189.42836c0,0 -121.99248,10.19192 -169.56281,10.40496c-47.57034,0.21304 -138.75835,1.07373 -147.16643,-5.19822c-8.40806,-6.27195 -15.82954,-24.89182 -15.82954,-24.89182z" fill="#f7f7f7" id="svg_170"/>
     <path stroke="url(#svg_198)" d="m12400.407176,9408.143793c0,0 7.46,-2.12 8.62,1.61c1.16,3.73 -8.62,18.64 -8.62,18.64c0,0 11.19,-0.94 11.66,1.39c-8.17,1.17 -17.81,1.13 -18.41,1.58c-0.6,0.45 6.75,-23.22 6.75,-23.22z" fill="#f7f7f7" id="svg_169"/>
     <path stroke="url(#svg_198)" d="m12423.867176,9394.443793c-0.83,-1.55 -13,0 -13,0l0,-7.42c0,0 9.27,-2.7 9.85,-4.84c1.46,-5.33 -9.58,-1.35 -11.4,-1a44.57,44.57 0 0 0 -35.19,40.73a19.71,19.71 0 0 0 0.6,7c-2.42,1.94 -6.35,4.35 -9.17,2.41c-4.36,-3 9,-25.46 8.42,-36c-0.48,-8.92 -7.77,-29.57 -26.27,-29.71c-14.84,-0.1 -23.28,6 -29,19c-5.72,13 -9.33,19.69 -15.39,19.1c-6.06,-0.59 -8.77,0.5 -13.63,-8.88c0.47,6.34 5.34,19.34 18.35,19c13.01,-0.34 18.74,-6.7 24.48,-12.16c5.74,-5.46 15.71,-7.6 16.18,-0.34c0.47,7.26 -5.69,25 -4.76,30.81c0.93,5.81 3.5,9.13 14.09,8.81c9,-0.28 15.25,-6.52 17.86,-9.34a8,8 0 0 0 4.72,3.63a3.31,3.31 0 0 1 0.92,0.3c0.7,0.42 -1.48,3.56 -1.78,4.32c-0.3,0.76 14.15,1.34 20.84,0.78a3,3 0 0 0 1.93,-0.66a2,2 0 0 0 -0.53,-2.89a5.84,5.84 0 0 0 -3.16,-0.86l-11.24,-0.84a69,69 0 0 0 14.64,-11.55c2.14,-2.21 4.27,-5.12 3.49,-8.11c-0.64,-2.4 -3,-3.92 -5.09,-5.19a48.3,48.3 0 0 1 -0.13,-11.89c0.5,-3.2 1.3,-5.49 3.25,-7.57c0,0.07 1,9.81 3.82,11.05c2.82,1.24 12.39,-4 12.39,-4c0,0 1.52,3.63 1.93,3.53c0.41,-0.1 2.81,-5.66 1.98,-7.22z" fill="#f7f7f7" id="svg_168"/>
     <path stroke="url(#svg_198)" d="m12417.347176,9376.933793c-1.44,-0.78 -2.2,-4.89 -1.1,-5.38c1.1,-0.49 3.88,1.1 3.82,3.42c0.72,-0.37 2.38,-0.79 2.76,-1.21a2.82,2.82 0 0 1 -1.49,-2.2c-0.57,-2.32 1.15,-2.83 2,-2.14c0.85,0.69 2,2.71 1.48,4.08c2.53,-1.32 5.78,-0.66 8.19,0.87a11,11 0 0 1 4.66,6.92a3,3 0 0 0 0.8,1.78c1.09,0.86 2.74,-0.35 4,0.11c1.09,0.38 -0.32,4.73 -1.29,5.35a22.76,22.76 0 0 1 -8.82,3.3c-2.93,0.43 -6.1,0.24 -8.54,-1.43a11.76,11.76 0 0 1 -3,-3.12c-2.98,-4.43 -2.24,-5.31 -3.47,-10.35z" fill="#f7f7f7" id="svg_167"/>
     <path stroke="url(#svg_198)" d="m12401.277176,9395.393793a74.7,74.7 0 0 0 -5.53,8.66a66.28,66.28 0 0 0 -6.37,13a94.73,94.73 0 0 1 11.59,-6.28l-0.34,-0.21a48.3,48.3 0 0 1 -0.13,-11.89a19.87,19.87 0 0 1 0.78,-3.28z" fill="#f7f7f7" id="svg_166"/>
     <path stroke="url(#svg_198)" d="m12351.407176,9435.783793c-0.54,-5.66 13.7,-18.14 4.28,-20.93a1,1 0 0 1 -0.58,-1.43c2.71,-3.75 7.91,-6.82 9.23,-11.39c1.32,-4.57 -1.85,-8.14 -6,-9.15c-1.57,-0.38 -3.7,-0.7 -4.85,-2c-1.35,-1.49 -1.21,-4 -3.08,-5.21c-2.88,-1.83 -7.44,0.16 -10,1.55c-4.22,2.24 -7.53,5.92 -10.86,9.27c-5.66,5.7 -12.27,12.95 -20.82,13.63c-9.54,0.77 -14.53,-6.87 -18.9,-14c1,6.65 6,18.07 18.21,17.75c13,-0.33 18.74,-6.7 24.48,-12.16c5.74,-5.46 15.71,-7.6 16.18,-0.34c0.47,7.26 -5.69,25 -4.76,30.81c0.93,5.81 3.5,9.13 14.09,8.81a20.75,20.75 0 0 0 2.4,-0.24c-4.45,0.57 -8.53,0.29 -9.02,-4.97z" fill="#f7f7f7" id="svg_165"/>
     <path stroke="url(#svg_198)" opacity="0.8" d="m12432.167176,9377.813793a12.1,12.1 0 0 1 3.65,4c1.84,3 4.11,4.05 7,3.43c0.21,-1 0.21,-1.88 -0.26,-2c-1.3,-0.46 -2.95,0.75 -4,-0.11a3,3 0 0 1 -0.8,-1.78a11,11 0 0 0 -4.66,-6.92a9.68,9.68 0 0 0 -5.46,-1.55c-0.89,0.23 -1.78,0.46 -2.67,0.66l-0.06,0l0,0c-0.62,0.14 -1.24,0.24 -1.87,0.32c-0.65,0.25 -1.28,0.53 -1.9,0.83c0.12,0.18 0.25,0.35 0.38,0.51a17.52,17.52 0 0 1 10.65,2.61z" fill="#f7f7f7" id="svg_164"/>
     <path stroke="url(#svg_198)" opacity="0.8" d="m12363.117176,9378.713793c7.4,9.47 8.18,22.17 6.51,34c2.34,-6.33 4.58,-12.9 4.33,-17.35c-0.48,-8.92 -7.77,-29.57 -26.27,-29.71l-1,0c6.58,2.82 12.72,8.32 16.43,13.06z" fill="#f7f7f7" id="svg_163"/>
     <path stroke="url(#svg_198)" d="m12398.807176,9436.253793l-5.57,-0.43a6.45,6.45 0 0 1 2.78,2.69a3.44,3.44 0 0 1 0.37,2.34c1.55,0 3,-0.09 4.18,-0.19a3,3 0 0 0 1.93,-0.66a2,2 0 0 0 -0.53,-2.89a5.84,5.84 0 0 0 -3.16,-0.86z" fill="#f7f7f7" id="svg_162"/>
     <circle stroke="url(#svg_198)" cx="12442.437166" cy="9383.523793" r="1.34" fill="#f7f7f7" id="svg_161"/>
     <path stroke="url(#svg_198)" opacity="0.8" d="m12400.627176,9410.533793c-4.77,0 -9.83,5.5 -11.79,7.16c10.79,-7.09 14.69,-3.82 15.29,1.5a8.3,8.3 0 0 1 -0.14,2.59c1.36,-1.84 2.29,-3.93 1.73,-6.06c-0.64,-2.4 -2.6,-5.19 -5.09,-5.19z" fill="#f7f7f7" id="svg_160"/>
     <path stroke="url(#svg_198)" opacity="0.8" d="m12410.847176,9394.443793l0,-6.75a3.29,3.29 0 0 0 -2.48,2.24c-0.42,1 -0.63,4.91 0,5.79c1.16,1.54 6.94,-0.33 8.8,-0.56a28,28 0 0 1 6.82,-0.12a1.7,1.7 0 0 0 -0.15,-0.6c-0.8,-1.55 -12.99,0 -12.99,0z" fill="#f7f7f7" id="svg_159"/>
     <path stroke="url(#svg_198)" d="m12266.335506,9427.735193c0,0 1.73,12.95 5.08,16.55c3.35,3.6 17.29,13.25 18,11.4c-6.77,-8.45 -14,-29.49 -14,-29.49l-9.08,1.54z" fill="#f7f7f7" id="svg_158"/>
     <path stroke="url(#svg_198)" d="m12221.805506,9428.585193a0.79,0.79 0 0 0 -0.38,0.29c-0.16,0.25 0,0.57 0.14,0.82a38.26,38.26 0 0 1 3.65,8.71c0.62,2.19 1.75,5.22 3.77,4.16c3.51,-1.85 0.64,-6.46 0,-10.38c0.4,2.42 8.16,-0.38 10.69,-4c3.24,-4.61 -4.46,-5.29 -7.26,-4.59c-3.61,0.92 -7.26,3.41 -10.61,4.99z" fill="#f7f7f7" id="svg_157"/>
     <path stroke="url(#svg_198)" d="m12251.455506,9400.495193c-4.66,-0.54 -9.52,-0.37 -13.81,1.52c-4.12,1.81 -7.41,5.06 -10.4,8.42a12.39,12.39 0 0 1 -3.06,2.77a8.48,8.48 0 0 1 -3.84,0.91c-6.26,0.22 -12.15,-3.28 -16.42,-7.85c-4.27,-4.57 -7.24,-10.18 -10.43,-15.56c-5.12,-8.64 -11.27,-17.16 -20.11,-21.93c-12.25,-6.62 -28.21,-4.55 -39.39,3.76c-11.18,8.31 -17.66,22.06 -18.66,35.95c-0.22,3.07 0.43,7 3.41,7.73l4.65,-8.92c2.28,-4.39 4.68,-8.91 8.57,-12c3.89,-3.09 9.74,-4.21 13.78,-1.36c3.17,2.24 4.49,6.32 4.9,10.18c0.41,3.86 0.13,7.81 1,11.59c2.19,9.19 11.16,15.56 20.43,17.38a36.12,36.12 0 0 0 20.1,-1.83c10.57,-4.16 19.79,-13.43 31.12,-12.69c1.48,4 5.41,6.72 9.53,7.85c4.12,1.13 8.47,0.94 12.74,0.73l-5.57,6.67a56.84,56.84 0 0 0 11.62,15.72c2.28,-5.8 0.41,-11.71 -3.21,-16.8a9.17,9.17 0 0 1 4.24,-4.13c4.16,2.24 15.21,1.63 19.88,1c-0.2,3.38 0.51,11.21 2.67,14.55c2.16,3.34 9.17,10.35 13.16,12.51c2.52,1.36 10.25,3.16 11.4,0.87c-9.46,-4 -18.88,-13.73 -18.84,-24c0,-5 4.35,-8.31 4.12,-12.55c-0.19,-3.67 -6.16,-8 -8.77,-10.06a49.21,49.21 0 0 0 -24.81,-10.43z" fill="#f7f7f7" id="svg_156"/>
     <path stroke="url(#svg_198)" d="m12198.915506,9417.535193c-3.72,0 -7.56,0.77 -10.33,-2.21a25.63,25.63 0 0 1 -2.36,-3.8c-2.21,-3.37 -4.91,-3.78 -8.79,-3.55c-4.74,0.28 -6.38,-1.52 -8.27,-5.77c-5.38,-12 -19,-21.35 -32.06,-14.36c-10,5.38 -16.15,17.18 -18.85,27.83a1,1 0 0 1 -0.13,0.27a3.51,3.51 0 0 0 0.66,0.27l4.65,-8.92c2.28,-4.39 4.68,-8.91 8.57,-12c3.89,-3.09 9.74,-4.21 13.78,-1.36c3.17,2.24 4.49,6.32 4.9,10.18c0.41,3.86 0.13,7.81 1,11.59c2.19,9.19 11.16,15.56 20.43,17.38a36.12,36.12 0 0 0 20.1,-1.83c7.52,-3 14.36,-8.49 21.76,-11.18c-4.64,-1.98 -9.64,-2.56 -15.06,-2.54z" fill="#f7f7f7" id="svg_155"/>
     <path stroke="url(#svg_198)" opacity="0.6" d="m12249.335506,9413.535193c0.22,0 9,5.91 8.89,8.67c-0.11,2.76 -8,7.05 -8,7.05c0,0 3.85,-4.93 3,-7.86c-0.85,-2.93 -3.89,-7.86 -3.89,-7.86z" fill="#f7f7f7" id="svg_154"/>
     <path stroke="url(#svg_198)" d="m12282.335506,9416.055193c-0.88,3 -2.56,5.8 -3.31,8.95a13.46,13.46 0 0 0 2.21,11.33a16.57,16.57 0 0 1 -0.24,-2.81c0,-5 4.35,-8.31 4.12,-12.55c-0.1,-1.6 -1.28,-3.31 -2.78,-4.92z" fill="#f7f7f7" id="svg_153"/>
     <path stroke="url(#svg_198)" d="m12288.335506,9410.015193c2.29,-0.91 4.2,1.45 2.58,7.05l2.92,0.07a10.53,10.53 0 0 1 -0.54,-4.74a2.49,2.49 0 0 1 2.78,-2.25c1.57,0.08 2.12,1.43 2.18,3a9,9 0 0 1 -1,4.39a12,12 0 0 1 4.94,11.1a36.87,36.87 0 0 0 -0.7,4.52a4.07,4.07 0 0 0 2,3.82a16,16 0 0 0 2.51,0.56c0.82,0.23 1.66,0.92 1.55,1.77c-0.1,0.7 -0.78,1.15 -1.42,1.47a17.78,17.78 0 0 1 -15.45,0.05c-4.23,-2.06 -7.64,-6.08 -8.24,-10.74a11.22,11.22 0 0 1 2.52,-8.51c0.7,-0.84 2.95,-1.89 3.2,-2.88c-1.13,-1.59 -2.92,-7.48 0.17,-8.68z" fill="#f7f7f7" id="svg_152"/>
     <circle stroke="url(#svg_198)" cx="12306.165496" cy="9438.705153" r="1.33" fill="#f7f7f7" id="svg_151"/>
     <path stroke="url(#svg_198)" opacity="0.6" d="m12180.675506,9384.865193c5.29,6 9.36,12.92 14.45,19.06a36.58,36.58 0 0 0 19.71,12.59c0.57,-0.08 1.13,-0.18 1.7,-0.31c-5.49,-0.5 -10.59,-3.71 -14.4,-7.78c-4.27,-4.58 -7.23,-10.18 -10.42,-15.57c-5.12,-8.64 -11.28,-17.16 -20.12,-21.93a34.48,34.48 0 0 0 -19.89,-3.72c11.17,2.17 21.71,9.41 28.97,17.66z" fill="#f7f7f7" id="svg_150"/>
     <path stroke="url(#svg_198)" opacity="0.6" d="m12267.635506,9409.755193c4.87,2.78 8.66,6.83 12.12,11.17a22.63,22.63 0 0 1 1,-3.5a43.88,43.88 0 0 0 -8.69,-7.65c-7.35,-4.84 -15.86,-6.24 -24.36,-7.68l2.94,1.36c5.62,2.27 11.69,3.29 16.99,6.3z" fill="#f7f7f7" id="svg_149"/>
     <path stroke="url(#svg_198)" d="m12753.513536,9243.141403c-15.3,8.93 -31.95,13.81 -51.19,18.39a531.88,531.88 0 0 1 -56.63,9.76l40.65,-56.37l55.42,-23.91l23.8,36.13c0,0 -3.14,4.3 -12.05,16z" fill="#f7f7f7" id="svg_148"/>
     <path stroke="url(#svg_198)" d="m12804.523536,9321.471403c-20.69,9.27 -211,62 -262.13,64.8l88.5,-108.85l16.56,0c16.55,0 33.68,-4.32 48.46,-6.18c14.78,-1.86 50.63,-11 67.24,-25.07c4.84,-4.15 10.4,-14.73 10.4,-14.73l41.32,61.77c0,0 10.34,19 -10.35,28.26z" fill="#f7f7f7" id="svg_147"/>
     <polygon stroke="url(#svg_198)" points="12706.253387451172,9236.342292785645 12706.993621826172,9219.171394348145 12692.273895263672,9232.472175598145 12692.273895263672,9219.171394348145 12671.533660888672,9244.392097473145 12686.313934326172,9214.921394348145 12724.953582763672,9154.151863098145 12753.513153076172,9210.852058410645 12738.763153076172,9205.472175598145 12730.644012451172,9232.472175598145 12719.913543701172,9210.852058410645 " fill="#f7f7f7" id="svg_146"/>
     <ellipse stroke="url(#svg_198)" cx="12551.153536" cy="9436.231403" rx="99.970001" ry="16.1" fill="#f7f7f7" id="svg_145"/>
     <path stroke="url(#svg_198)" stroke-miterlimit="10" d="m12585.616446,9379.948523c0,0 110.26,-9.9 124,-19.52" fill="#f7f7f7" stroke-width="2px" id="svg_144"/>
     <path stroke="url(#svg_198)" d="m12631.063536,9360.131403c-0.37,-1.68 78.91,-92.89 85.72,-99.15c6.81,-6.26 67.73,-78 72.14,-80.45c2.68,-6 -6.2,-11.06 -10.21,-8.33c-3.73,7.3 -67.86,83.12 -73.66,89.3c-5.8,6.18 -52.29,56.46 -72.64,72.56c-4.4,12.23 -8.47,14.29 -11.61,17.84c-0.54,1.89 0.14,4.45 3.81,6.89c3.67,2.44 6.45,1.34 6.45,1.34z" fill="#f7f7f7" id="svg_143"/>
     <path stroke="url(#svg_198)" d="m12767.683536,9197.741403c-5.79,5.67 -27.63,31.4 -33.29,38.11c-12.21,14.47 -62.7,71.66 -75.59,86.07c-6,6.76 -28.89,30.24 -34.94,36.35c0.24,0.18 0.47,0.37 0.75,0.55c3.66,2.45 6.45,1.31 6.45,1.31c-0.37,-1.68 78.91,-92.89 85.72,-99.15c6.81,-6.26 67.73,-78 72.14,-80.45a5.23,5.23 0 0 0 -0.26,-4.91c-6.36,7.93 -13.8,15.08 -20.98,22.12z" fill="#f7f7f7" id="svg_142"/>
     <path stroke="url(#svg_198)" d="m12622.413536,9350.261403c-0.56,0.55 -1.1,1.09 -1.61,1.67c-0.54,1.89 0.14,4.45 3.81,6.89c3.67,2.44 6.45,1.31 6.45,1.31a5.82,5.82 0 0 1 1,-1.6a18.86,18.86 0 0 0 -9.65,-8.27z" fill="#f7f7f7" id="svg_141"/>
     <path stroke="url(#svg_198)" stroke-miterlimit="10" d="m12549.763536,9184.931403c-3.68,-12.85 -14.32,-17.84 -18.14,-18.61a1.05,1.05 0 0 0 -1.21,1.31l4.68,17.3c0,0 -9.79,13.57 -9.79,27.89c0,14.32 1.47,19.8 0,24.2a29.19,29.19 0 0 0 3.3,24.94a59.9,59.9 0 0 0 31.93,25.25" fill="#f7f7f7" stroke-width="2.5px" id="svg_140"/>
     <path stroke="url(#svg_198)" stroke-miterlimit="10" d="m12530.973536,9166.301403c0,0 8.8,-9.85 30.26,-2.19a61.84,61.84 0 0 1 47.6,-1.61c26,9.82 33.11,25.77 33.11,25.77" fill="#f7f7f7" stroke-width="2.5px" id="svg_139"/>
     <path stroke="url(#svg_198)" stroke-miterlimit="10" d="m12617.753536,9199.181403c0,0 16.22,-13.9 30.13,-10.93c13.13,10.16 4.63,36.42 1.54,40.28" fill="#f7f7f7" stroke-width="2.5px" id="svg_138"/>
     <path stroke="url(#svg_198)" stroke-miterlimit="10" d="m12628.953536,9198.021403c0,0 11.43,-6.82 13.91,-4.22c2.92,3.07 1.76,19.93 0.77,26.24" fill="#f7f7f7" stroke-width="2.5px" id="svg_137"/>
     <path stroke="url(#svg_198)" stroke-miterlimit="10" d="m12525.303536,9212.821403c0,0 1.3,-18.32 11,-15.19c9.7,3.13 15,23.56 25.45,26.27c10.45,2.71 48.66,-9.24 62.18,2.33c13.52,11.57 7.34,25.09 5,29.72c-2.34,4.63 -9.63,16.35 -9.63,16.35c0,0 9.62,9 -10.46,15.56" fill="#f7f7f7" stroke-width="2.5px" id="svg_136"/>
     <path stroke="url(#svg_198)" stroke-miterlimit="10" d="m12652.933536,9220.041403c0,0 4.62,27.2 -7.44,43.64c-13,17.7 -41.14,30.1 -67.36,27.32" fill="#f7f7f7" stroke-width="2.5px" id="svg_135"/>
     <path stroke="url(#svg_198)" stroke-miterlimit="10" d="m12578.863536,9293.811403c0,0 -1.79,-8.27 -9.27,-8.81c-7.48,-0.54 -25.63,11.75 -35,26.16c-9.37,14.41 -7.74,21.09 2.77,28.87c8,5.89 27.94,10.21 46.09,8.35l21.9,-2.17a3.65,3.65 0 0 1 2.27,2.7c0,1.43 -3.4,11.62 2.22,12.46c5.62,0.84 6.46,-3.31 6.46,-7.46c4.77,-2.8 15.57,-9 16.07,-26.64c0.5,-17.64 -12.7,-28.5 -27.58,-26.26c-14.88,2.24 -39,11.51 -52.5,8.43" fill="#f7f7f7" stroke-width="2.5px" id="svg_134"/>
     <path stroke="url(#svg_198)" stroke-miterlimit="10" d="m12572.303536,9294.281403c0,0 -7.6,8.93 -7.73,15.41" fill="#f7f7f7" stroke-width="2.5px" id="svg_133"/>
     <line stroke="url(#svg_198)" stroke-miterlimit="10" x1="12591.733546" y1="9303.841403" x2="12583.483546" y2="9291.411403" fill="#f7f7f7" stroke-width="2.5px" id="svg_132"/>
     <line stroke="url(#svg_198)" stroke-miterlimit="10" x1="12580.443576" y1="9296.801403" x2="12582.323576" y2="9306.201403" fill="#f7f7f7" stroke-width="2.5px" id="svg_131"/>
     <ellipse stroke="url(#svg_198)" stroke-miterlimit="10" cx="12071.149766" cy="9793.763903" rx="2.74" ry="6.58" transform="rotate(-60 12071.149179697037,9793.763593673706)" fill="#f7f7f7" stroke-width="2.5px" id="svg_130"/>
     <path stroke="url(#svg_198)" stroke-miterlimit="10" d="m12558.893536,9287.211403c0,0 -54.21,15.29 -78.83,27.52c-24.62,12.23 -79.06,42.92 -76.8,51.5c2.26,8.58 47.9,-8.09 62.59,-14.6c16.5,-7.32 64.43,-32.57 64.43,-32.57" fill="#f7f7f7" stroke-width="2.5px" id="svg_129"/>
     <path stroke="url(#svg_198)" stroke-miterlimit="10" d="m12550.113536,9345.581403c0,0 -18.69,23.06 -29.61,29.7c-10.58,6.44 -39.86,21.91 -42.11,26.07c-3.35,6.18 -7.31,27.78 14.2,38.8c9.35,4.79 31.25,6.39 40.37,1.14c9.12,-5.25 8.79,-7.37 7.76,-8.21c-2.37,-1.93 -26.57,11.91 -37.21,10.38" fill="#f7f7f7" stroke-width="2.5px" id="svg_128"/>
     <path stroke="url(#svg_198)" stroke-miterlimit="10" d="m12496.993536,9409.761403c0.78,-0.78 23.39,-3.9 32.84,4.6c7.66,6.91 7,19.25 5.81,19.66" fill="#f7f7f7" stroke-width="2.5px" id="svg_127"/>
     <path stroke="url(#svg_198)" stroke-miterlimit="10" d="m12529.833536,9414.361403c0,0 18.22,-9.77 30.73,-28.52a163.63,163.63 0 0 0 18.3,-37.13" fill="#f7f7f7" stroke-width="2.5px" id="svg_126"/>
     <path stroke="url(#svg_198)" stroke-miterlimit="10" d="m12583.483536,9348.381403l21.52,72.91c0,0 6.34,13.52 16.79,12.73c10.45,-0.79 31.37,-7.94 40.22,-19.66c4.39,-5.81 9.65,-15.81 7.46,-19.29c-2.43,-3.86 -5.66,-2 -7.53,-1.34c-2.7,-1 -21.3,-2.52 -26.71,7" fill="#f7f7f7" stroke-width="2.5px" id="svg_125"/>
     <path stroke="url(#svg_198)" stroke-miterlimit="10" d="m12614.733536,9360.131403c0,0 16.22,34.94 23.59,46.52" fill="#f7f7f7" stroke-width="2.5px" id="svg_124"/>
     <path stroke="url(#svg_198)" stroke-miterlimit="10" d="m12646.743536,9261.821403c0,0 40.64,-21.74 55.46,-26.32c14.82,-4.58 28.39,-9.81 35.69,-1.88c7.3,7.93 1.41,24.4 -3.59,30.46c-5.63,6.89 -15.23,14.61 -28,14.61c0,0 -15.87,1.05 -17.12,-13.77c-3.55,1.67 -8.84,1.42 -5.63,-4c4.59,-7.72 13.77,-17.32 38.4,-20.24" fill="#f7f7f7" stroke-width="2.5px" id="svg_123"/>
     <path stroke="url(#svg_198)" stroke-miterlimit="10" d="m12584.913536,9291.381403c0,0 17.77,3.65 44,-1.2c26.23,-4.85 60.66,-22.89 60.66,-22.89" fill="#f7f7f7" stroke-width="2.5px" id="svg_122"/>
     <path stroke="url(#svg_198)" stroke-linecap="round" stroke-miterlimit="10" d="m12505.973536,9218.701403c11.11,4.56 19.17,18 19.17,18" fill="#f7f7f7" stroke-width="2.5px" id="svg_121"/>
     <path stroke="url(#svg_198)" stroke-linecap="round" stroke-miterlimit="10" d="m12505.973536,9232.151403c5.31,0.38 14.51,3.85 18.09,9.41" fill="#f7f7f7" stroke-width="2.5px" id="svg_120"/>
     <path stroke="url(#svg_198)" stroke-miterlimit="10" d="m12628.013536,9273.111403c7,0.8 26.88,10.28 32.4,17.73" fill="#f7f7f7" stroke-width="2.5px" id="svg_119"/>
     <path stroke="url(#svg_198)" stroke-linecap="round" stroke-miterlimit="10" d="m12657.193536,9287.501403a21.51,21.51 0 0 1 3.22,3.35" fill="#f7f7f7" stroke-width="2.5px" id="svg_118"/>
     <path stroke="url(#svg_198)" stroke-linecap="round" stroke-miterlimit="10" d="m12629.913536,9278.071403c5.28,3.06 16,13.34 18.82,20.74" fill="#f7f7f7" stroke-width="2.5px" id="svg_117"/>
     <ellipse stroke="url(#svg_198)" stroke-miterlimit="10" cx="12244.101686" cy="9604.403483" rx="22.059999" ry="3.95" transform="rotate(-30 12244.101991653442,9604.403125047684)" fill="#f7f7f7" stroke-width="2.5px" id="svg_116"/>
     <ellipse stroke="url(#svg_198)" stroke-miterlimit="10" cx="12344.200866" cy="9564.074783" rx="19.84" ry="2.87" transform="rotate(-24.90999984741211 12344.201328277588,9564.075078010559)" fill="#f7f7f7" stroke-width="2.5px" id="svg_115"/>
     <path stroke="url(#svg_198)" stroke-miterlimit="10" d="m12546.853536,9297.261403c-2.14,1.1 -7.35,3.35 -9.47,4.12c-9.35,3.41 -17.27,5.21 -17.71,4c-0.44,-1.21 6.8,-4.91 16.14,-8.32a84.93,84.93 0 0 1 16.61,-4.32" fill="#f7f7f7" stroke-width="2.5px" id="svg_114"/>
     <path stroke="url(#svg_198)" stroke-miterlimit="10" d="m12590.973536,9373.741403c0,0 2.38,3.26 4.09,2.75c1.71,-0.51 2.23,-12 0,-18.84c-2.23,-6.84 -5.49,-9.88 -6,-9.83" fill="#f7f7f7" stroke-width="2.5px" id="svg_113"/>
     <path stroke="url(#svg_198)" stroke-miterlimit="10" d="m12595.523536,9389.171403c0.19,0.63 7.18,0.4 11.28,14.38c4.1,13.98 3.13,21.95 0,20.86" fill="#f7f7f7" stroke-width="2.5px" id="svg_112"/>
     <path stroke="url(#svg_198)" stroke-miterlimit="10" d="m12684.363536,9259.781403c-10.54,0 -25,11.47 -24,13.33c2,3.82 20.82,-1.63 20.82,-1.63" fill="#f7f7f7" stroke-width="2.5px" id="svg_111"/>
     <path stroke="url(#svg_198)" stroke-miterlimit="10" d="m12621.903536,9291.321403c0,0 31.85,-11 33.08,-14.24c1.23,-3.24 -23.11,-0.32 -24.09,0.34" fill="#f7f7f7" stroke-width="2.5px" id="svg_110"/>
     <path stroke="url(#svg_198)" d="m12857.343536,9425.941403l12,-90.94l3.88,-108.63c0,0 5.13,-2 11.64,1.65c6.51,3.65 8.66,8.66 8.66,8.66l-11.66,87.32l2.5,101.94l-12.85,11.2l-14.17,-11.2z" fill="#f7f7f7" id="svg_109"/>
     <path stroke="url(#svg_198)" d="m12893.553536,9236.681403c0,0 -2.15,-5 -8.66,-8.66a16.82,16.82 0 0 0 -1.71,-0.84c-1,8.33 -0.26,16.74 -0.21,25.14a211.94,211.94 0 0 1 -2.07,28.48a525.32,525.32 0 0 0 -4.46,58.51c-0.18,9.9 0.76,19.71 0.92,29.6a155.26,155.26 0 0 1 -2.12,27.56c-2,12.4 -5.39,24.49 -9.06,36.5l5.33,4.21l12.88,-11.24l-2.5,-101.94l11.66,-87.32z" fill="#f7f7f7" id="svg_108"/>
     <path stroke="url(#svg_198)" d="m12841.843536,9254.921403c-1.78,0.14 -5.79,71.95 -5.79,71.95l74.83,8.13l6.24,-87.05l-75.28,6.97z" fill="#f7f7f7" id="svg_107"/>
     <polygon stroke="url(#svg_198)" points="12920.243621826172,9345.481941223145 12932.263153076172,9268.121589660645 12917.123504638672,9247.951667785645 12910.883270263672,9335.001472473145 " fill="#f7f7f7" id="svg_106"/>
     <polygon stroke="url(#svg_198)" points="12866.863739013672,9296.711433410645 12865.293426513672,9307.331550598145 12851.203582763672,9286.682136535645 12869.913543701172,9274.031745910645 12869.913543701172,9284.901863098145 12895.293426513672,9282.401863098145 12891.733856201172,9305.781745910645 " fill="#f7f7f7" id="svg_105"/>
     <polygon stroke="url(#svg_198)" points="12864.603973388672,9293.411628723145 12863.093231201172,9303.342292785645 12849.463348388672,9284.041511535645 12867.553192138672,9272.211433410645 12867.553192138672,9282.371589660645 12892.103973388672,9280.031745910645 12888.663543701172,9301.892097473145 " fill="#f7f7f7" id="svg_104"/>
     <path stroke="url(#svg_198)" d="m12890.283536,9441.841403c0,0 4.65,-48 2.86,-54.77c-1.07,3.93 -20.4,35.08 -20.4,35.08l0,-30.43c0,0 -4.3,14 -5.73,18.26c-1.43,-6.45 -11.45,-25.78 -10,-23.63c1.45,2.15 1.79,22.55 0,22.55c-1.43,-0.35 -6.8,-19 -12.17,-25.06c2.14,2.15 3.58,17.9 5.37,25.78c-0.72,-2.86 -15.23,-12.89 -22.2,-14.32c0.72,4.65 11.1,13.25 13.25,19.33c2.15,6.08 -1.44,12.89 -1.44,12.89l13.25,9.91l37.21,4.41z" fill="#f7f7f7" id="svg_103"/>
     <path stroke="url(#svg_198)" d="m12865.493536,9441.351403c-0.34,-1 7.41,-25.95 7.41,-25.95c0,0 22.91,-14.15 27,-16.51c4.09,-2.36 9.77,-2 9.77,-2l12.46,-4.71c0,0 34.37,9.09 35.38,9.43c1.01,0.34 7.07,11.45 9.77,15.16c2.7,3.71 4,6.06 4.38,12.13l0.34,6.06l-18.2,19.54l-20.89,0c0,0 -14.82,5.73 -18.19,4.72c-3.37,-1.01 -15.5,-4 -19.88,-7.75c-4.38,-3.75 -29.35,-10.12 -29.35,-10.12z" fill="#f7f7f7" id="svg_102"/>
     <path stroke="url(#svg_198)" stroke-miterlimit="10" d="m12910.883536,9401.081403c0,0 -1.86,-17.37 14.5,-36" fill="#f7f7f7" stroke-width="2px" id="svg_101"/>
     <circle stroke="url(#svg_198)" stroke-miterlimit="10" cx="12926.393536" cy="9363.831403" r="2.32" fill="#f7f7f7" stroke-width="2px" id="svg_100"/>
     <circle stroke="url(#svg_198)" stroke-miterlimit="10" cx="12935.593536" cy="9369.661393" r="2.1" fill="#f7f7f7" stroke-width="2px" id="svg_99"/>
     <path stroke="url(#svg_198)" stroke-miterlimit="10" d="m12917.543536,9376.061403c0,0 4.56,2.67 8.69,0a82.36,82.36 0 0 0 7.81,-5.81" fill="#f7f7f7" stroke-width="2px" id="svg_98"/>
     <path stroke="url(#svg_198)" opacity="0.5" d="m12894.573536,9383.831403a16.7,16.7 0 0 1 -0.65,-7.86c0.26,-1.23 1.06,-2.64 2.33,-2.59a2.7,2.7 0 0 1 1.55,0.73a19.49,19.49 0 0 1 2.8,2.87a76.78,76.78 0 0 1 14.36,26.27c-0.38,-4.77 2.15,-9.44 5.77,-12.57c3.62,-3.13 8.22,-4.9 12.86,-6.09c1.73,-0.45 3.82,-0.73 5.07,0.54a3.43,3.43 0 0 1 0.66,3.39a7,7 0 0 1 -2,2.94a35.35,35.35 0 0 1 -6.94,4.55a104.64,104.64 0 0 0 -14.7,10.1a3,3 0 0 1 -1.43,0.79a2.53,2.53 0 0 1 -1,-0.12c-9.76,-2.46 -16.15,-13.97 -18.68,-22.95z" fill="#f7f7f7" id="svg_97"/>
     <path stroke="url(#svg_198)" d="m12903.843536,9432.621403a104.82,104.82 0 0 1 17.1,-13.08c4.35,0.88 8.29,0.17 11.61,0.67c7,-6.18 15.21,-13.36 22.38,-19.34c-8.21,-2.22 -32.76,-8.71 -32.76,-8.71l-12.47,4.71c0,0 -5.73,-0.33 -9.77,2c-3.23,1.89 -18.47,11.28 -24.49,15c3.8,5.78 22.41,14.27 28.4,18.75z" fill="#f7f7f7" id="svg_96"/>
     <polygon stroke="url(#svg_198)" points="12920.243621826172,9345.501472473145 12910.883270263672,9335.021980285645 12836.053192138672,9326.892097473145 12836.053192138672,9333.021980285645 " fill="#f7f7f7" id="svg_95"/>
     <path stroke="url(#svg_198)" d="m12798.043536,9225.821403c0.71,-2.15 24.06,-29.06 24.06,-29.06l25.8,32.25l-4.3,0l11.47,12.18c0,0 -15.05,1.43 -17.2,-2.87c-1.48,3.1 -5.69,8.47 -7.5,7.87c-1.81,-0.6 -11.62,-13.23 -11.62,-13.23c0,0 -10,18 -11.43,17.44c-1.43,-0.56 -4.98,-23.26 -4.98,-23.26l-5.83,5.11l3.12,-5.07l-1.59,-1.36z" fill="#f7f7f7" id="svg_94"/>
     <path stroke="url(#svg_198)" stroke-miterlimit="10" d="m12954.933536,9400.871403c-8.21,-2.22 -32.76,-8.71 -32.76,-8.71l-12.47,4.71c0,0 -5.73,-0.33 -9.77,2c-3.23,1.89 -18.47,11.28 -24.49,15" fill="#f7f7f7" stroke-width="0.5px" id="svg_93"/>
     <path stroke="url(#svg_198)" opacity="0.6" d="m12287.435506,9413.745193c2.88,-0.25 1.27,4.88 2.94,5.49c1.26,0.45 2.87,-0.54 4.45,0.15a7.76,7.76 0 0 1 3.58,3.58c1.15,2.16 1.05,4.23 0.94,6.59c-0.14,3.14 0.13,6.29 3.7,7.2a4.3,4.3 0 0 1 -1.63,-3.6a36.87,36.87 0 0 1 0.7,-4.52a12,12 0 0 0 -4.94,-11.1a9,9 0 0 0 1,-4.39c-0.06,-1.57 -0.61,-2.92 -2.18,-3a2.49,2.49 0 0 0 -2.78,2.25a10.53,10.53 0 0 0 0.54,4.74l-2.92,-0.07c1.62,-5.6 -0.29,-8 -2.58,-7.05c-1.46,0.57 -1.81,2.23 -1.66,4a1.88,1.88 0 0 1 0.84,-0.27z" fill="#f7f7f7" id="svg_92"/>
    </g>
   </g>
  </g>
  <text style="cursor: move;" stroke="#7829c6" transform="matrix(0.07419919589387527,0,0,0.08037758442321641,252.05211917707686,200.1982321053355) " font-style="italic" font-weight="bold" xml:space="preserve" text-anchor="start" font-family="'Times New Roman', Times, serif" font-size="12" id="svg_184" y="66.31144" x="482.040948" stroke-width="0" fill="#7c68ba">daramirra</text>
  <path id="svg_193" d="m246.430973,196.4559" opacity="0.5" fill-opacity="null" stroke-opacity="null" stroke-width="1.5" stroke="#954ae0" fill="url(#svg_186)"/>
  <path id="svg_194" d="m237.350289,191.00749" opacity="0.5" fill-opacity="null" stroke-opacity="null" stroke-width="1.5" stroke="#954ae0" fill="url(#svg_186)"/>
 </g>
</svg>