<svg xmlns="http://www.w3.org/2000/svg" viewBox="0 0 100 100"><defs><style>.a{fill:#d33833;}.a,.d,.e,.f,.g,.h,.j,.k,.n,.o,.p,.q{fill-rule:evenodd;}.b,.n{fill:#ef3d3a;}.c,.o{fill:#231f20;}.d{fill:#f0d6b7;}.e{fill:#335061;}.f{fill:#6d6b6d;}.g{fill:#dcd9d8;}.h,.i{fill:#f7e4cd;}.j{fill:#49728b;}.k,.l{fill:#fff;}.m{fill:none;stroke:#d33833;stroke-miterlimit:5;stroke-width:0.71px;}.p{fill:#81b0c4;}.q{fill:#1d1919;}</style></defs><title>Jenkins</title><path class="a" d="M81.3,48.4c0,17.7-14,32-31.3,32s-31.3-14.3-31.3-32,14-32,31.3-32,31.3,14.3,31.3,32"/><path class="b" d="M20,56.3S17.7,22.9,48.5,22l-2.2-3.6L29.6,24l-4.7,5.5-4.2,8-2.4,9.3L19,53"/><path class="c" d="M28.6,26.6a31.1,31.1,0,0,0-8.9,21.9h0a31.1,31.1,0,0,0,8.9,21.9h0A29.4,29.4,0,0,0,50,79.5h0a29.4,29.4,0,0,0,21.4-9.1h0a31.1,31.1,0,0,0,8.9-21.9h0a31.1,31.1,0,0,0-8.9-21.9h0A29.4,29.4,0,0,0,50,17.5h0a29.4,29.4,0,0,0-21.4,9.1ZM27.2,71.8a33.5,33.5,0,0,1-9.5-23.3h0a33.5,33.5,0,0,1,9.5-23.3h0A31.6,31.6,0,0,1,50,15.5h0a31.6,31.6,0,0,1,22.8,9.7h0a33.5,33.5,0,0,1,9.5,23.3h0a33.5,33.5,0,0,1-9.5,23.3h0A31.6,31.6,0,0,1,50,81.5h0a31.6,31.6,0,0,1-22.8-9.7h0"/><path class="d" d="M63.2,48.6l-4.8.7L52,50H43.7l-3.1-1-2.7-2.9L35.8,40l-.5-1.3-2.9-1L30.8,35l-1.2-4,1.3-3.4L34,26.5l2.5,1.2,1.2,2.6,1.4-.2.5-.6-.5-2.7V23.3l.7-4.8V15.8l2.1-3.5,3.9-2.7,6.6-2.9,7.4,1.1,6.4,4.7,3,4.7L71,20.7l.5,8.6-1.4,7.3-2.6,6.6L65,46.7"/><path class="e" d="M59.1,69.2l-17,.7v2.9l1.4,10-.7.8L30.9,79.5,30,78.1,28.8,64.6l-2.7-8.1-.6-1.9L35,48.1l3-1.2,2.6,3.2,2.3,2,2.6.9,1.2.3,1.5,6.2,1,1.3,2.8-.9-1.9,3.7,10.3,4.9-1.3.7"/><path class="f" d="M30.9,27.6,34,26.5l2.5,1.2,1.2,2.6,1.4-.2.4-1.4-.8-2.8.8-6.5-.6-3.6L41,13.3l4.7-3.7L44.3,7.8,37.8,11,35,13.2l-1.5,3.3-2.4,3.2-.7,3.8.5,4.1"/><path class="g" d="M35.8,16.4s1.7-4.4,8.9-6.6.4-1.5.4-1.5l-7.8,3-3,2.9L33,16.6l2.8-.2"/><path class="g" d="M32.2,26.8s-2.5-8.4,7-9.6l-.3-1.4-6.6,1.5-1.9,6.2.5,4.1,1.3-.8"/><path class="h" d="M36,37.8l1.6-1.5a1,1,0,0,1,.8.9c.1.9.5,8.4,5.6,12.4.4.4-3.8-.6-3.8-.6l-3.8-5.9"/><path class="h" d="M57.9,35.6s.3-3.6,1.3-3.4a1.4,1.4,0,0,1,.9,1.3s-2.3,1.5-2.2,2.1"/><path class="i" d="M67.8,22.3a2.9,2.9,0,0,0-2.1,2.2c-.2,1.7,2.1.3,2.5.2"/><path class="i" d="M53.4,22.5s-2.6.3-2.6,2,3,1.5,3.8.8"/><path class="h" d="M37.2,30.2s-4.5-2.7-5-.1-1.6,4.5.7,7.3l-1.5-.5-1.5-3.7-.5-3.6,2.8-2.8,3.1.2,1.8,1.4v1.8"/><path class="h" d="M39.3,22.7s2.1-10.5,12.3-12.5c8.4-1.7,12.9.3,14.5,2.3,0,0-7.5-9-14.6-6.2S39.1,14,39.2,17.2a44.2,44.2,0,0,1,.1,5.5"/><path class="h" d="M67,13.6s-3.5-.1-3.6,3a3,3,0,0,0,.2,1s2.8-3.1,4.5-1.5"/><path class="h" d="M51.8,17.9s-.5-4.8-4.6-2-2.4,4.3-1.9,4.8.3,1.4.7.8.2-2.8,1.6-3.4,3.4-1.3,4.2-.2"/><path class="j" d="M40.6,50.1l-11.2,5s4.7,18.5,2.3,24.2L30,78.7v-7L26.8,58.3l-1.3-3.7,11.7-7.8,3.4,3.3"/><path class="j" d="M41.8,60.3l1.6,2v7.1H41.5s-.3-5-.3-5.6.3-2.7.3-2.7"/><path class="j" d="M41.8,70.5l-5.3.2L38,71.8l3.8.6"/><path class="e" d="M60.2,69.3h4.4l1.1,10.9-4.6.6-.9-11.4"/><path class="e" d="M61.4,69.3l6.7-.4s2.7-6.9,2.7-7.2,2.4-10,2.4-10l-5.4-5.6-1.1-1L63.9,48V59L61.4,69.3"/><path class="j" d="M64.4,68.5l-4.2.8.6,3.3c1.5.7,4.2-1.2,4.2-1.2"/><path class="j" d="M64.5,47.6l8.3,6.2.3-2.9-6.4-5.8-2.2,2.5"/><path class="k" d="M46,92.8l-2.5-10-1.2-7.4-.2-5.5,11.1-.6h7l-.6,12.5,1,9.7v1.7l-9,.8L46,92.8"/><path class="g" d="M58.6,69.2S58,81.6,59.8,90.4A21,21,0,0,1,51,93.2l10-.3,1.2-.7L60.8,72.6l-.4-4.1"/><path class="k" d="M65.9,79.2l4.6-1.3,8.8-.5,1.3-4.1-2.3-7L75.5,66l-3.8,1.2-3.6,1.7-2-.3-1.5.6"/><path class="g" d="M65.8,76.8s3.1-1.4,3.6-1.3l-1.3-6.6,1.5-.6s1.1,6.2,1.1,7l7.2.3A10.1,10.1,0,0,0,79,70l1.3,3.8V76l-1.9,2.8-2.1.5H72.8l-1.2-1.6-4.1.6-1.4.5"/><path class="l" d="M61.1,68.3l-2.6-6.6-2.8-4s.6-1.6,1.5-1.6h2.7l2.6.9-.2,4.4-1.2,6.9"/><path class="g" d="M61.6,66.1s-3.3-6.5-3.3-7.4.6-1.4,1.4-1.1l2.6,1.3V56.7l-4-.9-2.8.4,4.7,11h.9"/><path class="l" d="M47,50.3,43.7,50l-3.1-1v1.1l1.6,1.7,4.7,2.1"/><path class="g" d="M41.7,50.7s3.7,1.6,4.9,1.2v1.4l-3.3-.7-2-1.4.3-.5"/><path class="a" d="M65.9,56.5a22,22,0,0,1-5.5-.8c.1-.6-.1-1.3.1-1.7a2.7,2.7,0,0,1,1.8-.4,3.4,3.4,0,0,0-2-.3,2.5,2.5,0,0,0-.4-1.1c1.2-.4,3.9-3,5.4-2.2s1,2.9,1,4a3.8,3.8,0,0,1-.4,2.5"/><path class="m" d="M65.9,56.5a22,22,0,0,1-5.5-.8c.1-.6-.1-1.3.1-1.7a2.7,2.7,0,0,1,1.8-.4,3.4,3.4,0,0,0-2-.3,2.5,2.5,0,0,0-.4-1.1c1.2-.4,3.9-3,5.4-2.2s1,2.9,1,4A3.8,3.8,0,0,1,65.9,56.5Z"/><path class="a" d="M56.2,53.2v.4c-.7.4-1.7.4-2.4.8a6.2,6.2,0,0,1,2.6.6,4.9,4.9,0,0,0-.1,1.2c-1.2.8-2.2,2-3.6,2.7s-2.9,1.3-3.6,1.1-.4-.6-.5-1a13.5,13.5,0,0,1-1.2-4c-.1-1.9-.3-5,1.7-4.6a16.4,16.4,0,0,1,4.7,1.8,5.3,5.3,0,0,0,2.4,1"/><path class="m" d="M56.2,53.2v.4c-.7.4-1.7.4-2.4.8a6.2,6.2,0,0,1,2.6.6,4.9,4.9,0,0,0-.1,1.2c-1.2.8-2.2,2-3.6,2.7s-2.9,1.3-3.6,1.1-.4-.6-.5-1a13.5,13.5,0,0,1-1.2-4c-.1-1.9-.3-5,1.7-4.6a16.4,16.4,0,0,1,4.7,1.8A5.3,5.3,0,0,0,56.2,53.2Z"/><path class="a" d="M57.3,55.4a19.2,19.2,0,0,1-.3-2.2c2.7-1.8,3.2,3.1.3,2.2"/><path class="m" d="M57.3,55.4a19.2,19.2,0,0,1-.3-2.2C59.7,51.4,60.2,56.3,57.3,55.4Z"/><path class="n" d="M61.2,56.2s-.8-1.2-.2-1.6,1.2,0,1.5-.6,0-.9.2-1.6.7-.9,1.3-1,2.2-.3,2.5.3l-.7-2.2L64.3,49l-4.5,2.7L59.6,53v2.6"/><path class="n" d="M48.7,60.1c-.1-1.8-.3-3.7-.5-5.6s.7-2.2,3.1-2.2c.4,0,2.3.4,2.4.7s-1.1,1,.8,2,4.3-.5,3.6-2.4c-.3-.4-1.8-.1-2.3-.4L53,50.8c-1.2-.7-3.9-1.5-5.2-.7-3.2,2.2.2,7.6,1.3,9.9"/><path class="o" d="M51.8,17.9c-3.2-.8-4.8,1.4-5.8,3.6-.9-.3-.5-1.5-.3-2.1s2.9-3.7,4.8-3.4,2,.9,1.3,1.9"/><path class="o" d="M67.7,21.6h.1c.8,1.5,1.4,3.1,2.3,4.5s-4.7,2.7-4.6.1c.9-.4,2.4-.1,3.2-.6a7.9,7.9,0,0,1-1-4"/><path class="o" d="M53.5,21.6c.7,1.3.9,2.7,1.9,3.6s1.3,1,.9,2.2a2.3,2.3,0,0,1-1.3,1c-1.5.5-5.1.1-3.9-1.8,1.3.1,3,.8,4-.1-.8-1.2-2.1-3.5-1.6-4.9"/><path class="o" d="M67.1,34.6c-2.3,1.5-4.9,3.1-8.8,2.8A2.7,2.7,0,0,1,58,34c.4.7.2,2,1.3,2.2s4.7-1.3,6.3-1.9-.1-2.2-1-3.3-4.2-4.8-4.1-8c.7-.5.8.8.9,1.1.9,2.1,3.3,4.9,5,6.8s1.1.9,1.2,1.2-.6,1.9-.5,2.5"/><path class="o" d="M36.4,33c-.8-.4-.9-2.2-1.8-2.3s-1,2.4-1,3.9c-.8-.8-1-3.2-.4-4.4s-1,.4-1.4.7c.5-3.7,5.4-1.7,4.6,2.1"/><path class="o" d="M68.6,36.1c-1.1,2.1-2.6,4.4-5.8,4.4a6.7,6.7,0,0,1,0-2c2.4-.3,3.9-1.5,5.8-2.4"/><path class="o" d="M53.3,37.5c2.1,1,5.8,1.2,8.5,1.1a6.8,6.8,0,0,1,.2,2.1c-3.5.1-7.7-.7-8.7-3.2"/><path class="o" d="M52.9,39.5c1.4,3.5,6.3,3.1,10.3,3a1.9,1.9,0,0,1-1,1.2c-1.3.5-4.9.9-6.7,0A9.2,9.2,0,0,1,53,40.9c-.3-.4-1.9-1.4-.1-1.4"/><path class="p" d="M66.9,58.9a63.1,63.1,0,0,1-5.2,8.2c.9-2.4,1.2-6.4,1.3-9.5a3,3,0,0,1,3.9,1.3"/><path class="o" d="M75.8,69c-1.9.4-3.2,2.2-5,2.1,1-1.4,2.8-2,5-2.1"/><path class="o" d="M76.6,71.9a25.8,25.8,0,0,1-4.8.3c.7-1.1,3.5-.7,4.8-.3"/><path class="o" d="M77.1,74.4a48.2,48.2,0,0,1-5.4-.1c1-1,4.3-.4,5.4.1"/><path class="g" d="M63.7,81.2c.3,2.2,1.1,4.3,1,6.6a6.7,6.7,0,0,1-2.7.6c-.1-2-.4-5-.3-6.9.6.1,1.6-.4,2-.3"/><path class="d" d="M61,50l-2.4,1.8a4.9,4.9,0,0,1-4.1-1.2s.2,0,.2-.1c1.9.8,4.4-.4,6.3-.5"/><path class="p" d="M50.9,63.1c.5-2.3,2.6-3.4,4.5-4.7,1.9,2.5,3.1,5.6,4.4,8.7a39.7,39.7,0,0,1-8.9-4"/><path class="o" d="M61.7,81.5c-.1,1.9.2,4.9.3,6.9a6.7,6.7,0,0,0,2.7-.6c.1-2.3-.7-4.4-1-6.6C63.3,81.1,62.3,81.6,61.7,81.5ZM42.2,70.8a102.6,102.6,0,0,0,4.3,20.7,27.4,27.4,0,0,0,15,.3c-.8-3.8-.5-8.4-.9-12.5s-.2-6.1-.7-9.2C54.7,69,47.4,69.9,42.2,70.8Zm19-.6a78.7,78.7,0,0,0,.4,9.7l3.2-.6c-.4-3.1-.3-6.6-1.1-9.4A6.9,6.9,0,0,0,61.2,70.2Zm6.3-.5a3.7,3.7,0,0,0-1.8,0c.2,2.6.9,5.5,1.1,8.3.9.1,1.4-.4,2.1-.5,0-2.4-.2-5.8-1.4-7.8Zm9.6,8.7c1.9-.4,3.1-2.7,2.5-5s-.9-4.6-1.6-5.6-1.8-1.7-2.9-1-4.8,1.4-6,2.8a42.4,42.4,0,0,1,1,7.6c2.2.2,4.9-.6,6.7.2-1.3.4-2.9.4-4,1a7.8,7.8,0,0,0,4.3,0ZM59.8,67.1c-1.3-3.1-2.5-6.2-4.4-8.7-1.9,1.3-4,2.4-4.5,4.7A39.7,39.7,0,0,0,59.8,67.1ZM63,57.6c-.1,3.1-.4,7.1-1.3,9.5a63.1,63.1,0,0,0,5.2-8.2A3,3,0,0,0,63,57.6Zm-3.6-1.3c-.8-.1-1.4.9-2.3.5a4.6,4.6,0,0,0-.7.7c2.1,2.6,3.1,6.2,4.7,9.2.9-2.9.8-6.1,1-9.2C60.9,57.6,60.2,56.4,59.4,56.3ZM57,53.2a19.2,19.2,0,0,0,.3,2.2C60.2,56.3,59.7,51.4,57,53.2Zm-3.2-1a16.4,16.4,0,0,0-4.7-1.8c-2-.4-1.8,2.7-1.7,4.6a13.5,13.5,0,0,0,1.2,4c.1.4.2.9.5,1s3-.8,3.6-1.1,2.4-1.9,3.6-2.7a4.9,4.9,0,0,1,.1-1.2,6.2,6.2,0,0,0-2.6-.6c.7-.4,1.7-.4,2.4-.8v-.4A5.3,5.3,0,0,1,53.8,52.2ZM42,50c-1.1,1,2.9,2.5,4.1,2.5s.4-1.2.3-1.7S43,50.7,42,50Zm12.7.5c0,.1-.2.1-.2.1a4.9,4.9,0,0,0,4.1,1.2L61,50C59.1,50.1,56.6,51.3,54.7,50.5ZM66.3,54c0-1.1-.3-3.5-1-4s-4.2,1.8-5.4,2.2a2.5,2.5,0,0,1,.4,1.1,3.4,3.4,0,0,1,2,.3,2.7,2.7,0,0,0-1.8.4c-.2.4,0,1.1-.1,1.7a22,22,0,0,0,5.5.8A3.8,3.8,0,0,0,66.3,54ZM40.2,51c-.3-.2-2.5-3.1-2.8-3a46.3,46.3,0,0,0-11,6.9C29.6,61.7,30.9,70,31.1,78c3.6,1.7,6.8,4.1,11.7,4.3-.6-4-1.1-7.6-1.4-11.3-1.2-.6-3,0-4.2-.2s1.8-.6,1.9-1.6-.9-.7-.6-1.8,1.4,1,2.4,1.3c.8-1.9-.1-5.3.1-6.9s.1-1.7.8-1.5,0,3.7,0,5.2-.1,2.8.4,3.6c4.8-.6,9.6-1,14.7-1.2-1.1-.5-2.4-.9-3.9-1.7s-3.3-1.4-3.6-2.2,1-1.8,1.2-2.9c-2.4,1.3-2.8-1.2-3.4-3a24.2,24.2,0,0,1-.9-3.8A39.5,39.5,0,0,1,40.2,51Zm24-2.6c3.3-1.6,3.9,6,2.6,8.4.2.8.9,1,1.2,1.7-1.8,3.3-3.9,6.4-5.8,9.6,1.4-.8,3.4-.1,5.1-.8s1-1.6,1.5-2.7a54.4,54.4,0,0,0,3.1-9.7,14.1,14.1,0,0,0,.5-2.7c-.2-1.1-1.6-1.9-2.3-2.5s-2.2-2.3-3.6-3.4c-.6.9-1.8,1.4-2.3,2.1ZM32.7,19.1c-1.6,1.7-1.3,5-1.1,7.3,2.9-1.8,6.6.1,6.6,3.2,1.4-.1.5-1.7.3-2.8-.8-3.5,1.3-7.3.1-10.5a8.5,8.5,0,0,0-5.9,2.8ZM43.9,9c-3.5,1-8.1,3.6-9.6,6.8,1.2-.1,2-.7,3.1-.8a6.6,6.6,0,0,0,1.4.1c1-.3,1.8-2.4,2.6-3.2s1.5-1.2,2.1-1.9.9-.2,1-.7A.9.9,0,0,0,43.9,9Zm18.6,1c-3.7-2.1-10-3.7-13.9-1.7s-7.5,4.2-8.9,7.5c1.3,3.2-.4,6.1-.6,9.4,0,1.7.9,3.2.9,5.1s-1.9.9-2.9.8c-.3-1.6-.9-3.5-2.6-3.7a4,4,0,0,0-4.3,3.9c-.1,2.4,1.9,6.5,4.8,6.2,1.1-.1,1.3-1.2,2.6-1.2S36.5,38,36.4,39a5,5,0,0,0,.2,1.6,19.8,19.8,0,0,0,2.9,6.6c1.4,2.1,4.3,2.4,7.3,2.6.6-1.2,2.6-1.1,3.9-.8a11.6,11.6,0,0,1-4.2-3.5c-1.4-1.5-2.9-3.2-2.9-5.2,2.6,3.7,4.8,6.9,9.6,8.5s7.9-.5,10.7-2.5A12.3,12.3,0,0,0,66.5,43c3.1-4.4,4.6-10.8,4.2-16.9-.1-2.5-.1-5-.9-6.7s-3.9-3.4-5.7-1.8c-.3-1.7,1.5-2.8,3.6-2.2-1.5-1.9-3.1-4.2-5.2-5.4Zm6.9,57c2.9-1.4,8.3-3.8,10.1,0a41.5,41.5,0,0,1,1.8,5.3c.5,2.1-.5,6.5-2.7,7.2a12.2,12.2,0,0,1-6.3.1,2.7,2.7,0,0,1-.8-1,7.9,7.9,0,0,0-4.4.8c.1,1.2-.7,1.3-1.5,1.6-.6,2.2,1.1,5.2.7,7.2s-2,1.7-3.4,1.9a13.8,13.8,0,0,0,.2,2.2c-.3,1.1-1.7,1.8-2.9,1.9-4.2.5-10.6.7-14.7-.7-1.1-2.8-2-6.1-2.9-9.3-4,.4-7.2-1.7-10.2-3.1-1-.5-2.5-.7-2.8-1.6s-.3-2.3-.4-3.8a53.5,53.5,0,0,0-1.4-11.1c-.4-1.7-1.2-3.2-1.7-4.8a31.1,31.1,0,0,1-1.6-4.9c-.3-2.3,1.8-2.4,3.1-3.4s3.8-2.3,6-3.7c.7-.4,2.7-1.4,3-1.9s-.8-2.2-1.2-2.9a8.4,8.4,0,0,1-.8-3.3A6.4,6.4,0,0,1,30.4,37c-1.5-2.1-2.5-6.1-1.2-9,.1-.3.6-.7.6-1.1a6.9,6.9,0,0,0-.3-2.4c-.1-3.8.7-7.2,3.3-8.3,1-4.2,4.8-5.6,8.4-7.7a28,28,0,0,1,4.3-1.9c5.4-2,13.8-1.6,18.3,1.8,1.9,1.5,5,4.5,6.1,6.7,2.8,5.9,2.6,15.6.6,22.7a18.2,18.2,0,0,1-1.2,3.5c-.4.8-1.6,2.4-1.4,3.1s2.7,2.7,3.2,3.3,2.9,2.2,3.1,3.4a13.4,13.4,0,0,1-1,4.3C72,59.5,70.8,63.3,69.4,67"/><path class="h" d="M50.1,38.4a2.2,2.2,0,0,1,2.2,0s-1.4.3-1.3,2.7l-.6-.2s-.6-2.1-.3-2.5"/><path class="q" d="M60.5,58.9a.6.6,0,0,1-.6.6.7.7,0,0,1-.7-.6.7.7,0,0,1,.7-.7c.4,0,.6.3.6.7"/><path class="q" d="M61.2,61.9a.7.7,0,0,1-.7.7.7.7,0,0,1-.6-.7.6.6,0,0,1,.6-.6c.4,0,.7.2.7.6"/></svg>