<svg xmlns="http://www.w3.org/2000/svg" viewBox="0 0 100 100"><defs><style>.a{fill:#221e1b;fill-rule:evenodd;}</style></defs><title>Github</title><path class="a" d="M50,9.5A40.5,40.5,0,0,0,37.2,88.4c2,.4,2.8-.9,2.8-2s-.1-3.5-.1-6.8C28.7,82,26.3,74.1,26.3,74.1c-1.9-4.6-4.5-5.9-4.5-5.9-3.7-2.5.3-2.4.3-2.4,4,.2,6.2,4.1,6.2,4.1,3.6,6.2,9.4,4.4,11.7,3.4a9.1,9.1,0,0,1,2.6-5.4c-9-1-18.4-4.5-18.4-20A16.3,16.3,0,0,1,28.3,37c-.4-1-1.8-5.1.4-10.7,0,0,3.4-1.1,11.2,4.2a37.1,37.1,0,0,1,20.2,0c7.8-5.3,11.2-4.2,11.2-4.2,2.2,5.6.8,9.7.4,10.7a16.3,16.3,0,0,1,4.1,10.9c0,15.5-9.4,19-18.5,20,1.5,1.2,2.8,3.7,2.8,7.4,0,5.5-.1,9.8-.1,11.1s.8,2.4,2.8,2A40.5,40.5,0,0,0,50,9.5Z"/></svg>